<svg width="15" height="16" viewBox="0 0 15 16" fill="none" xmlns="http://www.w3.org/2000/svg">
<path d="M13.5938 0.4375H1.40625C1.01562 0.4375 0.683594 0.574219 0.410156 0.847656C0.136719 1.12109 0 1.45313 0 1.84375V14.0312C0 14.4219 0.136719 14.7539 0.410156 15.0273C0.683594 15.3008 1.01562 15.4375 1.40625 15.4375H13.5938C13.9844 15.4375 14.3164 15.3008 14.5898 15.0273C14.8633 14.7539 15 14.4219 15 14.0312V1.84375C15 1.45313 14.8633 1.12109 14.5898 0.847656C14.3164 0.574219 13.9844 0.4375 13.5938 0.4375ZM10.3125 2.78125C10.3125 2.6543 10.3564 2.54688 10.4443 2.45898C10.542 2.36133 10.6543 2.3125 10.7812 2.3125H12.6562C12.7832 2.3125 12.8906 2.36133 12.9785 2.45898C13.0762 2.54688 13.125 2.6543 13.125 2.78125V4.65625C13.125 4.7832 13.0762 4.89551 12.9785 4.99316C12.8906 5.08105 12.7832 5.125 12.6562 5.125H10.7812C10.6543 5.125 10.542 5.08105 10.4443 4.99316C10.3564 4.89551 10.3125 4.7832 10.3125 4.65625V2.78125ZM7.5 5.125C8.27148 5.125 8.93066 5.39844 9.47754 5.94531C10.0342 6.49219 10.3125 7.15625 10.3125 7.9375C10.3125 8.70898 10.0391 9.37305 9.49219 9.92969C8.94531 10.4766 8.28125 10.75 7.5 10.75C6.72852 10.75 6.06445 10.4766 5.50781 9.92969C4.96094 9.38281 4.6875 8.71875 4.6875 7.9375C4.6875 7.16602 4.96094 6.50684 5.50781 5.95996C6.05469 5.40332 6.71875 5.125 7.5 5.125ZM13.125 13.0938C13.125 13.2207 13.0762 13.333 12.9785 13.4307C12.8906 13.5186 12.7832 13.5625 12.6562 13.5625H2.34375C2.2168 13.5625 2.10449 13.5186 2.00684 13.4307C1.91895 13.333 1.875 13.2207 1.875 13.0938V7H2.90039C2.87109 7.14648 2.84668 7.29785 2.82715 7.4541C2.81738 7.61035 2.8125 7.77148 2.8125 7.9375C2.8125 8.58203 2.93457 9.19238 3.17871 9.76855C3.42285 10.335 3.75488 10.833 4.1748 11.2627C4.60449 11.6826 5.10254 12.0146 5.66895 12.2588C6.24512 12.5029 6.85547 12.625 7.5 12.625C8.14453 12.625 8.75 12.5029 9.31641 12.2588C9.89258 12.0146 10.3906 11.6826 10.8105 11.2627C11.2402 10.833 11.5771 10.335 11.8213 9.76855C12.0654 9.19238 12.1875 8.58203 12.1875 7.9375C12.1875 7.78125 12.1777 7.625 12.1582 7.46875C12.1484 7.30273 12.1289 7.14648 12.0996 7H13.125V13.0938Z" fill="white"/>
</svg>
