<svg width="61" height="60" viewBox="0 0 61 60" fill="none" xmlns="http://www.w3.org/2000/svg">
<path d="M30.2921 0C13.5625 0 0 13.4318 0 30C0 46.5682 13.5625 60 30.2921 60C36.7187 60 42.678 58.0168 47.5776 54.6329C48.5326 53.9944 47.9 53.2163 47.7025 53.0088L39.7649 45.1516C39.092 44.4852 38.411 44.6967 38.1451 44.8204C38.1048 44.8404 38.0645 44.8603 38.0283 44.8843C35.7114 46.0734 33.0803 46.7438 30.2961 46.7438C20.9764 46.7438 13.3973 39.2378 13.3973 30.008C13.3973 20.7781 20.9764 13.2721 30.2961 13.2721C39.6158 13.2721 47.1948 20.7781 47.1948 30.008C47.1948 32.6257 46.5824 35.1038 45.4945 37.3105C45.4945 37.3105 44.7692 38.5754 46.0707 39.8723L53.6538 47.3823C53.9076 47.5938 54.5281 47.925 55.2655 46.9832C58.6178 42.1548 60.5841 36.3089 60.5841 30.008C60.5841 13.4318 47.0216 0 30.2921 0Z" fill="#EA580C"/>
<path d="M39.3824 33.7753C39.3824 33.7753 40.3091 34.0985 40.563 33.4441C40.9337 32.3627 41.1391 31.2055 41.1391 30.0004C41.1391 24.0746 36.2718 19.2542 30.2883 19.2542C24.3049 19.2542 19.4375 24.0746 19.4375 30.0004C19.4375 35.9261 24.3049 40.7466 30.2883 40.7466C31.489 40.7466 32.6414 40.547 33.7213 40.1919C33.9187 40.1081 34.3821 39.8208 34.1081 39.0307C34.1081 39.0267 34.1081 39.0227 34.1081 39.0187C33.5641 37.5702 33.8744 35.8783 35.0509 34.717C36.2234 33.5558 37.9238 33.2446 39.3864 33.7793M30.2924 34.0786C28.0239 34.0786 26.1785 32.251 26.1785 30.0044C26.1785 27.7577 28.0239 25.9301 30.2924 25.9301C32.5608 25.9301 34.4103 27.7577 34.4103 30.0044C34.4103 32.251 32.5608 34.0786 30.2924 34.0786Z" fill="#EA580C"/>
</svg>
