<svg width="34" height="34" viewBox="0 0 34 34" fill="none" xmlns="http://www.w3.org/2000/svg">
<g clip-path="url(#clip0_260_21649)">
<path d="M34 16.2918C33.9993 15.3149 33.7099 14.3599 33.1683 13.5468C32.6266 12.7337 31.8569 12.0988 30.9556 11.7217C30.3804 8.43833 28.6659 5.46298 26.1136 3.31894C23.5613 1.1749 20.3348 -0.000488281 17.0014 -0.000488281C13.6681 -0.000488281 10.4415 1.1749 7.88926 3.31894C5.33697 5.46298 3.62245 8.43833 3.04727 11.7217C2.01878 12.1544 1.1663 12.9213 0.627673 13.8985C0.0890511 14.8757 -0.10422 16.006 0.0791112 17.1067C0.262443 18.2073 0.81166 19.2139 1.63795 19.9638C2.46424 20.7136 3.5193 21.1629 4.63252 21.2388C5.36422 22.7916 6.35655 24.2075 7.56644 25.4251C5.7936 27.3608 4.6685 29.8012 4.34777 32.4064C4.32267 32.6057 4.34022 32.808 4.39927 33C4.45833 33.192 4.55752 33.3692 4.69029 33.5199C4.82305 33.6706 4.98635 33.7914 5.16934 33.8742C5.35233 33.957 5.55084 33.9999 5.75169 34.0002H28.2186C28.4194 34.0001 28.618 33.9573 28.801 33.8747C28.9841 33.7921 29.1475 33.6715 29.2804 33.5209C29.4133 33.3703 29.5126 33.1932 29.5719 33.0013C29.6311 32.8094 29.6488 32.6071 29.6239 32.4078C29.3055 29.8092 28.186 27.3742 26.4209 25.4407C27.6374 24.2193 28.6351 22.798 29.3704 21.2388C30.6257 21.1554 31.8023 20.598 32.662 19.6794C33.5216 18.7609 33.9999 17.5499 34 16.2918ZM28.6847 18.3786C28.3543 18.318 28.0131 18.3777 27.7228 18.5469C27.4326 18.7161 27.2125 18.9835 27.1023 19.3008C25.8046 22.9813 21.4342 26.9168 17 26.9168C12.5659 26.9168 8.19544 22.9785 6.89777 19.298C6.78733 18.9808 6.56716 18.7136 6.27699 18.5445C5.98682 18.3753 5.64576 18.3155 5.31536 18.3757C5.19763 18.3988 5.07825 18.4126 4.95836 18.4168C4.43247 18.4105 3.9276 18.2095 3.54138 17.8525C3.15517 17.4955 2.91505 17.008 2.86747 16.4842C2.81988 15.9605 2.96822 15.4377 3.28378 15.0169C3.59934 14.5962 4.05971 14.3074 4.57586 14.2065C4.87706 14.1519 5.15248 14.0012 5.36087 13.777C5.56926 13.5527 5.69942 13.267 5.73186 12.9627C5.93771 10.9963 6.65656 9.11853 7.8164 7.51737C8.97624 5.91621 10.5364 4.64786 12.3406 3.83933C12.0422 4.59842 11.9338 5.41892 12.0248 6.22946C12.1158 7.04001 12.4034 7.81605 12.8627 8.49009C13.322 9.16412 13.939 9.71574 14.66 10.097C15.3811 10.4782 16.1844 10.6775 17 10.6775C17.8157 10.6775 18.6189 10.4782 19.34 10.097C20.0611 9.71574 20.6781 9.16412 21.1374 8.49009C21.5966 7.81605 21.8843 7.04001 21.9753 6.22946C22.0663 5.41892 21.9578 4.59842 21.6594 3.83933C23.4637 4.64786 25.0238 5.91621 26.1836 7.51737C27.3435 9.11853 28.0623 10.9963 28.2682 12.9627C28.3006 13.267 28.4308 13.5527 28.6392 13.777C28.8476 14.0012 29.123 14.1519 29.4242 14.2065C29.9403 14.3074 30.4007 14.5962 30.7163 15.0169C31.0318 15.4377 31.1802 15.9605 31.1326 16.4842C31.085 17.008 30.8449 17.4955 30.4587 17.8525C30.0724 18.2095 29.5676 18.4105 29.0417 18.4168C28.9219 18.4135 28.8025 18.4007 28.6847 18.3786Z" fill="#3BA4CD"/>
<path d="M13.459 18.417C14.6326 18.417 15.584 17.4656 15.584 16.292C15.584 15.1184 14.6326 14.167 13.459 14.167C12.2854 14.167 11.334 15.1184 11.334 16.292C11.334 17.4656 12.2854 18.417 13.459 18.417Z" fill="#3BA4CD"/>
<path d="M20.541 18.417C21.7146 18.417 22.666 17.4656 22.666 16.292C22.666 15.1184 21.7146 14.167 20.541 14.167C19.3674 14.167 18.416 15.1184 18.416 16.292C18.416 17.4656 19.3674 18.417 20.541 18.417Z" fill="#3BA4CD"/>
</g>
<defs>
<clipPath id="clip0_260_21649">
<rect width="34" height="34" fill="white"/>
</clipPath>
</defs>
</svg>
