<svg width="34" height="34" viewBox="0 0 34 34" fill="none" xmlns="http://www.w3.org/2000/svg">
<g clip-path="url(#clip0_260_21678)">
<path d="M7.79167 29.75C6.85236 29.75 5.95152 29.3769 5.28733 28.7127C4.62314 28.0485 4.25 27.1476 4.25 26.2083V2.125C4.25 1.56141 4.02612 1.02091 3.6276 0.622398C3.22909 0.223883 2.68859 0 2.125 0V0C1.56141 0 1.02091 0.223883 0.622398 0.622398C0.223883 1.02091 0 1.56141 0 2.125L0 26.2083C0 28.2748 0.820905 30.2567 2.28213 31.7179C3.74335 33.1791 5.72519 34 7.79167 34H31.875C32.4386 34 32.9791 33.7761 33.3776 33.3776C33.7761 32.9791 34 32.4386 34 31.875C34 31.3114 33.7761 30.7709 33.3776 30.3724C32.9791 29.9739 32.4386 29.75 31.875 29.75H7.79167Z" fill="#3BA4CD"/>
<path d="M27.625 25.5C28.1886 25.5 28.7291 25.2761 29.1276 24.8776C29.5261 24.4791 29.75 23.9386 29.75 23.375V14.875C29.75 14.3114 29.5261 13.7709 29.1276 13.3724C28.7291 12.9739 28.1886 12.75 27.625 12.75C27.0614 12.75 26.5209 12.9739 26.1224 13.3724C25.7239 13.7709 25.5 14.3114 25.5 14.875V23.375C25.5 23.9386 25.7239 24.4791 26.1224 24.8776C26.5209 25.2761 27.0614 25.5 27.625 25.5Z" fill="#3BA4CD"/>
<path d="M10.625 25.5C11.1886 25.5 11.7291 25.2761 12.1276 24.8776C12.5261 24.4791 12.75 23.9386 12.75 23.375V14.875C12.75 14.3114 12.5261 13.7709 12.1276 13.3724C11.7291 12.9739 11.1886 12.75 10.625 12.75C10.0614 12.75 9.52091 12.9739 9.1224 13.3724C8.72388 13.7709 8.5 14.3114 8.5 14.875V23.375C8.5 23.9386 8.72388 24.4791 9.1224 24.8776C9.52091 25.2761 10.0614 25.5 10.625 25.5Z" fill="#3BA4CD"/>
<path d="M19.125 25.4993C19.6886 25.4993 20.2291 25.2755 20.6276 24.8769C21.0261 24.4784 21.25 23.9379 21.25 23.3743V7.79102C21.25 7.22743 21.0261 6.68693 20.6276 6.28841C20.2291 5.8899 19.6886 5.66602 19.125 5.66602C18.5614 5.66602 18.0209 5.8899 17.6224 6.28841C17.2239 6.68693 17 7.22743 17 7.79102V23.3743C17 23.9379 17.2239 24.4784 17.6224 24.8769C18.0209 25.2755 18.5614 25.4993 19.125 25.4993Z" fill="#3BA4CD"/>
</g>
<defs>
<clipPath id="clip0_260_21678">
<rect width="34" height="34" fill="white"/>
</clipPath>
</defs>
</svg>
