<svg width="34" height="34" viewBox="0 0 34 34" fill="none" xmlns="http://www.w3.org/2000/svg">
<g clip-path="url(#clip0_260_21683)">
<path d="M31.8531 15.5486L16.9993 24.4622L2.14556 15.5486C1.82337 15.3553 1.4376 15.2979 1.07309 15.389C0.708579 15.4801 0.395201 15.7123 0.201891 16.0345C0.00858129 16.3567 -0.0488243 16.7424 0.0423027 17.107C0.13343 17.4715 0.365625 17.7848 0.687808 17.9782L16.2711 27.3282C16.4915 27.4605 16.7437 27.5305 17.0007 27.5305C17.2578 27.5305 17.51 27.4605 17.7303 27.3282L33.3136 17.9782C33.6358 17.7848 33.868 17.4715 33.9591 17.107C34.0503 16.7424 33.9929 16.3567 33.7996 16.0345C33.6063 15.7123 33.2929 15.4801 32.9284 15.389C32.5639 15.2979 32.1781 15.3553 31.8559 15.5486H31.8531Z" fill="#3BA4CD"/>
<path d="M31.855 22.0188L17.0013 30.9311L2.14751 22.0188C1.98798 21.9231 1.81116 21.8597 1.62714 21.8323C1.44313 21.8049 1.25552 21.8141 1.07504 21.8592C0.894551 21.9043 0.724719 21.9845 0.575239 22.0953C0.425759 22.2061 0.299557 22.3452 0.20384 22.5047C0.108123 22.6642 0.0447642 22.8411 0.017382 23.0251C-0.0100002 23.2091 -0.0008699 23.3967 0.0442516 23.5772C0.135379 23.9417 0.367574 24.2551 0.689757 24.4484L16.2731 33.7984C16.4934 33.9308 16.7456 34.0007 17.0027 34.0007C17.2597 34.0007 17.5119 33.9308 17.7323 33.7984L33.3156 24.4484C33.6378 24.2551 33.87 23.9417 33.9611 23.5772C34.0522 23.2127 33.9948 22.8269 33.8015 22.5047C33.6082 22.1825 33.2948 21.9503 32.9303 21.8592C32.5658 21.7681 32.18 21.8255 31.8578 22.0188H31.855Z" fill="#3BA4CD"/>
<path d="M0.686635 11.8396L14.8306 20.3268C15.4855 20.7208 16.2353 20.9289 16.9996 20.9289C17.7638 20.9289 18.5136 20.7208 19.1685 20.3268L33.3125 11.8396C33.5219 11.7136 33.6952 11.5356 33.8156 11.3229C33.9359 11.1101 33.9991 10.8699 33.9991 10.6255C33.9991 10.3811 33.9359 10.1408 33.8156 9.92809C33.6952 9.71535 33.5219 9.53735 33.3125 9.4114L19.1685 0.924152C18.5134 0.530644 17.7637 0.322754 16.9996 0.322754C16.2354 0.322754 15.4857 0.530644 14.8306 0.924152L0.686635 9.4114C0.477178 9.53735 0.303867 9.71535 0.18355 9.92809C0.0632319 10.1408 0 10.3811 0 10.6255C0 10.8699 0.0632319 11.1101 0.18355 11.3229C0.303867 11.5356 0.477178 11.7136 0.686635 11.8396Z" fill="#3BA4CD"/>
</g>
<defs>
<clipPath id="clip0_260_21683">
<rect width="34" height="34" fill="white"/>
</clipPath>
</defs>
</svg>
