<svg width="34" height="34" viewBox="0 0 34 34" fill="none" xmlns="http://www.w3.org/2000/svg">
<g clip-path="url(#clip0_260_21654)">
<path d="M34 15.5833V32.5833C34 32.9591 33.8507 33.3194 33.5851 33.5851C33.3194 33.8508 32.9591 34 32.5833 34C32.2076 34 31.8473 33.8508 31.5816 33.5851C31.3159 33.3194 31.1667 32.9591 31.1667 32.5833V25.5H2.83333V32.5833C2.83333 32.9591 2.68408 33.3194 2.4184 33.5851C2.15272 33.8508 1.79239 34 1.41667 34C1.04094 34 0.680609 33.8508 0.414932 33.5851C0.149256 33.3194 0 32.9591 0 32.5833V17.7083C0 15.6419 0.820905 13.66 2.28213 12.1988C3.74335 10.7376 5.72519 9.91667 7.79167 9.91667C9.85814 9.91667 11.84 10.7376 13.3012 12.1988C14.7624 13.66 15.5833 15.6419 15.5833 17.7083V22.6667H19.8333V15.5833C19.8333 14.4562 20.2811 13.3752 21.0781 12.5781C21.8752 11.7811 22.9562 11.3333 24.0833 11.3333H25.5V14.1667C25.5 14.5424 25.6493 14.9027 25.9149 15.1684C26.1806 15.4341 26.5409 15.5833 26.9167 15.5833C27.2924 15.5833 27.6527 15.4341 27.9184 15.1684C28.1841 14.9027 28.3333 14.5424 28.3333 14.1667V11.3333H29.75C30.8772 11.3333 31.9582 11.7811 32.7552 12.5781C33.5522 13.3752 34 14.4562 34 15.5833ZM12.75 4.95834C12.75 3.97767 12.4592 3.01903 11.9144 2.20363C11.3695 1.38824 10.5952 0.752717 9.68914 0.377433C8.78312 0.0021484 7.78617 -0.0960432 6.82434 0.0952752C5.86252 0.286594 4.97903 0.758829 4.2856 1.45226C3.59216 2.1457 3.11992 3.02919 2.92861 3.99101C2.73729 4.95284 2.83548 5.94979 3.21076 6.85581C3.58605 7.76183 4.22157 8.53621 5.03696 9.08104C5.85236 9.62587 6.811 9.91667 7.79167 9.91667C9.1067 9.91667 10.3679 9.39428 11.2977 8.46441C12.2276 7.53454 12.75 6.27337 12.75 4.95834Z" fill="#3BA4CD"/>
</g>
<defs>
<clipPath id="clip0_260_21654">
<rect width="34" height="34" fill="white"/>
</clipPath>
</defs>
</svg>
