<svg width="34" height="34" viewBox="0 0 34 34" fill="none" xmlns="http://www.w3.org/2000/svg">
<g clip-path="url(#clip0_260_21659)">
<path d="M32.2443 19.7915L28.7806 20.7067C28.2731 20.8404 27.7986 21.0772 27.3866 21.4022L23.7118 19.2659C24.204 17.7949 24.204 16.2036 23.7118 14.7326L27.3866 12.5948C27.7986 12.9199 28.2731 13.1566 28.7806 13.2904C28.7806 13.2904 32.488 14.2523 32.6056 14.2523C32.9446 14.2456 33.27 14.1175 33.5226 13.8912C33.7752 13.6649 33.9383 13.3556 33.9822 13.0193C34.0261 12.6831 33.9479 12.3422 33.7619 12.0587C33.5758 11.7752 33.2942 11.5678 32.9683 11.4742L29.5059 10.5577C29.2467 10.4888 29.0253 10.32 28.8904 10.0881C28.7554 9.85624 28.718 9.58033 28.7863 9.32091L29.7028 5.85857C29.7505 5.67867 29.7622 5.49115 29.7374 5.30672C29.7125 5.12229 29.6516 4.94456 29.558 4.78367C29.4645 4.62279 29.3402 4.4819 29.1922 4.36905C29.0443 4.25621 28.8755 4.17362 28.6956 4.12599C28.5157 4.07836 28.3282 4.06664 28.1437 4.09148C27.9593 4.11633 27.7816 4.17725 27.6207 4.27078C27.4598 4.36432 27.3189 4.48862 27.2061 4.6366C27.0932 4.78458 27.0106 4.95334 26.963 5.13324L26.0478 8.59557C25.9122 9.10356 25.8828 9.63404 25.9614 10.1539L22.2781 12.2931C21.2653 11.1513 19.9108 10.3672 18.4163 10.0576V5.80757C18.9037 5.61611 19.3468 5.32683 19.7182 4.95757L22.2512 2.42457C22.5178 2.15894 22.6679 1.79828 22.6686 1.42195C22.6692 1.04562 22.5204 0.68444 22.2547 0.417864C21.9891 0.151288 21.6284 0.00115469 21.2521 0.000490494C20.8758 -0.0001737 20.5146 0.148686 20.248 0.414323L17.715 2.94732C17.5246 3.13575 17.2675 3.24144 16.9996 3.24144C16.7317 3.24144 16.4746 3.13575 16.2842 2.94732L13.7512 0.414323C13.484 0.156265 13.1261 0.0134732 12.7547 0.016701C12.3832 0.0199288 12.0279 0.168918 11.7653 0.43158C11.5026 0.694241 11.3536 1.04956 11.3504 1.421C11.3472 1.79245 11.49 2.1503 11.748 2.41749L14.281 4.95757C14.6524 5.32683 15.0955 5.61611 15.5829 5.80757V10.0576C14.0871 10.3646 12.7305 11.1467 11.7154 12.2874L8.03209 10.1482C8.11069 9.62838 8.08128 9.09789 7.94568 8.58991L7.03618 5.12757C6.98855 4.94767 6.90596 4.77892 6.79311 4.63093C6.68026 4.48295 6.53938 4.35865 6.37849 4.26512C6.21761 4.17159 6.03987 4.11066 5.85544 4.08581C5.67101 4.06097 5.48349 4.0727 5.30359 4.12032C5.12369 4.16795 4.95493 4.25054 4.80695 4.36339C4.65897 4.47623 4.53467 4.61712 4.44114 4.77801C4.3476 4.93889 4.28668 5.11662 4.26183 5.30106C4.23699 5.48549 4.24872 5.67301 4.29634 5.85291L5.21292 9.31524C5.28119 9.57467 5.24375 9.85057 5.10883 10.0824C4.97391 10.3143 4.75253 10.4832 4.49326 10.552L1.03092 11.4742C0.699404 11.563 0.411358 11.769 0.220303 12.0541C0.0292488 12.3392 -0.0518234 12.6839 -0.00785056 13.0243C0.0361223 13.3646 0.20215 13.6775 0.459386 13.9046C0.716622 14.1318 1.04758 14.2579 1.39076 14.2594C1.51117 14.2594 5.21576 13.2975 5.21576 13.2975C5.72322 13.1637 6.19773 12.9269 6.60976 12.6019L10.2874 14.7326C9.79518 16.2036 9.79518 17.7949 10.2874 19.2659L6.61259 21.4022C6.20056 21.0772 5.72606 20.8404 5.21859 20.7067L1.75484 19.7915C1.40211 19.7229 1.03648 19.7909 0.731991 19.9817C0.427505 20.1725 0.206919 20.472 0.114901 20.8193C0.0228825 21.1667 0.0663085 21.536 0.236386 21.8526C0.406463 22.1691 0.69048 22.4092 1.03092 22.5242L4.49326 23.4408C4.75253 23.5097 4.97391 23.6785 5.10883 23.9104C5.24375 24.1422 5.28119 24.4181 5.21292 24.6776L4.29634 28.1399C4.24872 28.3198 4.23699 28.5073 4.26183 28.6918C4.28668 28.8762 4.3476 29.0539 4.44114 29.2148C4.53467 29.3757 4.65897 29.5166 4.80695 29.6294C4.95493 29.7423 5.12369 29.8249 5.30359 29.8725C5.48349 29.9201 5.67101 29.9318 5.85544 29.907C6.03987 29.8822 6.21761 29.8212 6.37849 29.7277C6.53938 29.6342 6.68026 29.5099 6.79311 29.3619C6.90596 29.2139 6.98855 29.0451 7.03618 28.8652L7.95134 25.4029C8.08694 24.8949 8.11636 24.3644 8.03776 23.8446L11.7211 21.7054C12.7339 22.8472 14.0884 23.6313 15.5829 23.9409V28.1909C15.0955 28.3824 14.6524 28.6716 14.281 29.0409L11.748 31.581C11.49 31.8482 11.3472 32.206 11.3504 32.5775C11.3536 32.9489 11.5026 33.3042 11.7653 33.5669C12.0279 33.8296 12.3832 33.9786 12.7547 33.9818C13.1261 33.985 13.484 33.8422 13.7512 33.5842L16.2913 31.0512C16.4817 30.8627 16.7388 30.757 17.0067 30.757C17.2746 30.757 17.5317 30.8627 17.7221 31.0512L20.2551 33.5842C20.5223 33.8422 20.8801 33.985 21.2516 33.9818C21.623 33.9786 21.9783 33.8296 22.241 33.5669C22.5037 33.3042 22.6527 32.9489 22.6559 32.5775C22.6591 32.206 22.5163 31.8482 22.2583 31.581L19.7253 29.048C19.3525 28.6754 18.9069 28.3836 18.4163 28.1909V23.9409C19.9119 23.6343 21.2684 22.8527 22.2838 21.7125L25.9671 23.8517C25.8885 24.3715 25.9179 24.902 26.0535 25.41L26.9687 28.8723C27.0649 29.2357 27.3014 29.5459 27.6264 29.7348C27.9513 29.9237 28.3379 29.9758 28.7013 29.8796C29.0646 29.7834 29.3748 29.5468 29.5637 29.2219C29.7526 28.897 29.8047 28.5103 29.7085 28.147L28.7919 24.6847C28.7237 24.4252 28.7611 24.1493 28.896 23.9175C29.0309 23.6856 29.2523 23.5167 29.5116 23.4479L32.9739 22.5313C33.1577 22.4875 33.3309 22.4074 33.4833 22.2956C33.6356 22.1839 33.7641 22.0428 33.8611 21.8806C33.9581 21.7185 34.0217 21.5386 34.0482 21.3515C34.0746 21.1644 34.0634 20.9739 34.0151 20.7912C33.9668 20.6085 33.8824 20.4373 33.767 20.2878C33.6515 20.1382 33.5073 20.0132 33.3429 19.9202C33.1784 19.8271 32.997 19.768 32.8093 19.7461C32.6216 19.7243 32.4315 19.7402 32.25 19.7929L32.2443 19.7915Z" fill="#3BA4CD"/>
</g>
<defs>
<clipPath id="clip0_260_21659">
<rect width="34" height="34" fill="white"/>
</clipPath>
</defs>
</svg>
