<svg width="25" height="24" viewBox="0 0 25 24" fill="none" xmlns="http://www.w3.org/2000/svg">
<path d="M17.5 20C17.5 18.3431 15.2614 17 12.5 17C9.73858 17 7.5 18.3431 7.5 20M21.5 17.0004C21.5 15.7702 20.2659 14.7129 18.5 14.25M3.5 17.0004C3.5 15.7702 4.7341 14.7129 6.5 14.25M18.5 10.2361C19.1137 9.68679 19.5 8.8885 19.5 8C19.5 6.34315 18.1569 5 16.5 5C15.7316 5 15.0308 5.28885 14.5 5.76389M6.5 10.2361C5.88625 9.68679 5.5 8.8885 5.5 8C5.5 6.34315 6.84315 5 8.5 5C9.26835 5 9.96924 5.28885 10.5 5.76389M12.5 14C10.8431 14 9.5 12.6569 9.5 11C9.5 9.34315 10.8431 8 12.5 8C14.1569 8 15.5 9.34315 15.5 11C15.5 12.6569 14.1569 14 12.5 14Z" stroke="#3BA4CD" stroke-width="2" stroke-linecap="round" stroke-linejoin="round"/>
</svg>
