<?xml version="1.0" encoding="utf-8"?>
<!-- Generator: Adobe Illustrator 25.4.1, SVG Export Plug-In . SVG Version: 6.00 Build 0)  -->
<svg version="1.1" id="Capa_1" xmlns="http://www.w3.org/2000/svg" xmlns:xlink="http://www.w3.org/1999/xlink" x="0px" y="0px"
	 viewBox="0 0 125 125" style="enable-background:new 0 0 125 125;" xml:space="preserve">
<style type="text/css">
	.st0{fill:#7B6A58;}
	.st1{fill:#04C1F3;}
</style>
<g>
	<g>
		<g>
			<path class="st0" d="M91.6,109.2H20.5C9.2,109.2,0,100.1,0,88.8V36.2c0-11.3,9.2-20.5,20.5-20.5h71.1c11.3,0,20.5,9.2,20.5,20.5
				v10.4c0,1.7-1.4,3.1-3.1,3.1c-1.7,0-3.1-1.4-3.1-3.1V36.2c0-7.9-6.4-14.3-14.3-14.3H20.5c-7.9,0-14.3,6.4-14.3,14.3v52.5
				c0,7.9,6.4,14.3,14.3,14.3h71.1c1.7,0,3.1,1.4,3.1,3.1C94.7,107.9,93.3,109.2,91.6,109.2z"/>
		</g>
		<g>
			<path class="st0" d="M56.1,67.2c-5.5,0-11-2.1-15.2-6.3L15.4,35.5c-1.2-1.2-1.2-3.2,0-4.4s3.2-1.2,4.4,0l25.4,25.4
				c6,6,15.7,6,21.7,0l25.8-25.8c1.2-1.2,3.2-1.2,4.4,0s1.2,3.2,0,4.4L71.3,60.9C67.1,65.1,61.6,67.2,56.1,67.2z"/>
		</g>
	</g>
	<circle class="st1" cx="102.9" cy="75.5" r="22.1"/>
</g>
</svg>
