<?xml version="1.0" encoding="utf-8"?>
<!-- Generator: Adobe Illustrator 25.4.1, SVG Export Plug-In . SVG Version: 6.00 Build 0)  -->
<svg version="1.1" id="Capa_1" xmlns="http://www.w3.org/2000/svg" xmlns:xlink="http://www.w3.org/1999/xlink" x="0px" y="0px"
	 viewBox="0 0 125 125" style="enable-background:new 0 0 125 125;" xml:space="preserve">
<style type="text/css">
	.st0{fill:#7B6A58;}
	.st1{fill:#04C1F3;}
</style>
<g>
	<path class="st0" d="M124.9,111.6c0,0-15.1-45.3-20.3-60.6c-0.3-0.9-0.8-2.3-2.9-3c-4.2-1.3-16.5-5.4-18.7-6.2
		c-0.8,2.5-1.9,5.2-3.2,7.9l7.4,44l-21.8,12.6V72.8c-2.3,3.1-3.9,5.1-3.9,5.1s-0.7-0.9-1.8-2.4V107L36.3,94.1l7.6-43.4
		c-1.6-3.2-3-6.4-4-9.3c-3.5,1.1-12.8,4-16.8,5.3c-2.2,0.7-3.1,2.5-3.4,3.4c-5,15.2-19.6,59.7-19.6,59.7c-0.4,1.1,0,2.3,0.8,3.1
		c0.9,0.8,2.1,0.9,3.1,0.4c0,0,18.4-9.3,24.6-12.2c3.7-1.8,5.4-1.5,8.5,0.1c5.6,3,15.4,8.5,20.8,11.5c2.8,1.6,5.1,1.5,7.6,0.1
		c5.4-3,15.8-9.1,21-12.1c3.5-2,4.7-2.2,8.7-0.1c7,3.7,19.4,10.9,25.5,14.4c1.4,0.8,2.7,0.2,3.2-0.3
		C124.9,114,125.2,112.7,124.9,111.6z M30.6,93.7L7.7,105.1l17.4-53l13.5-4.3L30.6,93.7z M92.8,92.6l-7.4-44l13.9,4.6l17.7,53.1
		L92.8,92.6z"/>
	<path class="st1" d="M84.4,32.6c0-12.7-10.3-22.9-22.9-22.9c-12.7,0-22.9,10.3-22.9,22.9c-1,14.8,22.9,45.3,22.9,45.3
		S85.8,47.9,84.4,32.6z"/>
</g>
</svg>
