<?xml version="1.0" encoding="utf-8"?>
<!-- Generator: Adobe Illustrator 25.4.1, SVG Export Plug-In . SVG Version: 6.00 Build 0)  -->
<svg version="1.1" id="Capa_1" xmlns="http://www.w3.org/2000/svg" xmlns:xlink="http://www.w3.org/1999/xlink" x="0px" y="0px"
	 viewBox="0 0 125 125" style="enable-background:new 0 0 125 125;" xml:space="preserve">
<style type="text/css">
	.st0{fill:#7B6A58;}
	.st1{fill:#04C1F3;}
</style>
<g>
	<g>
		<path class="st0" d="M32.7,52c4.9,0.2,12.7,2,14.1-4.6c0.8-3.5-0.2-7.9-0.6-11.4c-0.5-4.1-1.3-8.1-2.2-12.1
			c-0.7-3.1-1.5-6.1-2.3-9.1c-0.7-2.5-1.2-5.1-2.6-7.3c-2.7-4.2-7.8-5.8-12.6-5.8C16.2,1.5,7,6.7,3,16.4
			c-4.3,10.5-3.5,23.2-0.6,33.9C5.5,62,13.2,72.2,21,81.1c10,11.4,21.9,21.2,35,28.8c12.3,7.2,26.2,13.1,40.7,13.5
			c11.6,0.3,22.6-4.1,26.4-15.8c2-6,3.3-13.6-0.6-19.2c-4.2-6-12.9-7-19.5-8.7c-4.1-1-8.2-1.9-12.4-2.6c-3.3-0.6-6.9-0.7-9.9,1
			c-5.5,3.2-5.5,10.1-4,15.5c1.1,4.2,7.7,2.4,6.5-1.8c-0.8-3.1-1.6-7.9,2.7-8.4c2.8-0.3,5.9,0.7,8.5,1.2c2.9,0.6,5.8,1.3,8.7,2
			c4.4,1.1,12,1.7,14.3,6.3c2,4,0.3,9.4-1,13.3c-3.2,9.3-13.3,10.9-22,10.2c-11.7-0.9-22.9-5.7-33-11.3C41.4,94,22.5,77,11.8,56.4
			C8,49,6.7,39.8,6.9,31.4c0.2-7.7,2.1-17.2,9.7-20.8c3.6-1.7,8.1-2.8,12-2.2c4.9,0.8,5.4,4.3,6.5,8.5c1.6,6.1,3.2,12.3,4.1,18.6
			c0.3,1.8,0.5,3.6,0.6,5.5c0,0.4,0.5,4.6,0.4,4.6c-1,0.8-6.3-0.4-7.7-0.5C28.4,45,28.4,51.7,32.7,52L32.7,52z"/>
	</g>
	<g>
		<g>
			<g>
				<path class="st1" d="M90.2,54.2c0.2-6.6-2.2-13.1-6.8-17.9c-4-4.2-9.9-7.1-15.8-6.6c-1.8,0.1-3.5,1.5-3.4,3.4
					c0.1,1.7,1.5,3.5,3.4,3.4c0.6-0.1,1.2-0.1,1.8,0c0.3,0,0.5,0,0.8,0.1c0.4,0,0.3,0-0.1,0c0.2,0,0.3,0.1,0.5,0.1
					c0.5,0.1,1,0.2,1.5,0.4c0.3,0.1,0.6,0.2,0.9,0.3c0.2,0.1,1.1,0.4,0.3,0.1c1.1,0.5,2.1,1,3,1.7c0.1,0.1,0.9,0.7,0.5,0.4
					c-0.3-0.3,0.4,0.4,0.5,0.4c0.5,0.4,0.9,0.8,1.3,1.3c0.4,0.4,0.8,0.9,1.2,1.4c-0.5-0.6,0.1,0.1,0.2,0.2c0.2,0.3,0.4,0.6,0.6,1
					c0.3,0.5,0.6,1,0.9,1.5c0.2,0.3,0.3,0.7,0.5,1.1c0.3,0.7-0.1-0.5,0.1,0.3c0.4,1.3,0.8,2.5,1.1,3.8c0,0.2,0.1,0.4,0.1,0.6
					c0-0.3,0-0.4,0-0.1c0,0.4,0.1,0.7,0.1,1.1c0,0.8,0,1.5,0,2.3c-0.1,1.8,1.6,3.5,3.4,3.4C88.7,57.5,90.1,56.1,90.2,54.2L90.2,54.2
					z"/>
			</g>
			<g>
				<path class="st1" d="M106.2,55c0-7.8-1.8-15.7-5.7-22.6c-4.1-7.2-10.6-12.6-18.4-15.5c-5-1.9-10.5-2.6-15.9-2.6
					c-4.4,0-4.4,6.8,0,6.8c9.7,0,19.1,3,25.5,10.6c5.4,6.4,7.6,15.1,7.7,23.4C99.4,59.4,106.2,59.4,106.2,55L106.2,55z"/>
			</g>
		</g>
	</g>
</g>
</svg>
