<svg width="152" height="47" viewBox="0 0 152 47" fill="none" xmlns="http://www.w3.org/2000/svg">
<path d="M21.8356 9.86435L22.9525 9.62845C23.2354 9.62845 23.4737 9.68743 23.6375 9.80537C23.8014 9.92332 23.8907 10.0413 23.8907 10.1445C23.8907 10.2477 23.8609 10.4098 23.8162 10.6015C23.7716 10.7932 23.3546 12.7688 22.5802 16.4988C21.8058 20.2289 21.2399 23.0154 20.8825 24.8436C22.61 22.5141 24.6353 19.6539 26.9436 16.2482C29.2519 12.8425 30.6071 10.5868 30.9943 9.46628C31.1135 9.11244 31.2773 8.84706 31.4709 8.65539C31.6645 8.46373 31.8432 8.34579 31.9921 8.3163C32.141 8.28681 32.3793 8.25732 32.692 8.25732C33.0048 8.25732 33.3771 8.33104 33.809 8.46373C34.2408 8.59642 34.4642 8.81757 34.4642 9.14192C34.4642 9.73166 33.5707 11.4566 31.7985 14.2873C30.0263 17.1181 27.9861 20.1257 25.6927 23.3103C23.3993 26.4948 21.4931 29.0159 19.9592 30.8736C19.6911 31.1979 19.3486 31.3748 18.9614 31.3748C18.5742 31.3748 18.1572 31.3011 17.7253 31.1684C17.2935 31.0358 17.0701 30.7999 17.0701 30.446C17.0701 29.3403 18.0529 24.0032 20.0187 14.4643C18.3359 16.6168 16.2957 19.6244 13.898 23.4724C11.3961 27.4531 9.98136 29.93 9.65374 30.8736C9.47503 31.4486 9.26654 31.7877 9.02826 31.8761C8.86445 31.9498 8.68573 31.9793 8.50703 31.9793L7.30076 32.112C7.06248 32.112 6.85399 32.053 6.6455 31.9203C6.4519 31.7877 6.34766 31.655 6.34766 31.5075C6.34766 31.1095 6.91357 29.9005 8.03049 27.8954C9.1474 25.8903 10.4728 23.7083 11.9769 21.3494C13.481 18.9905 15.0447 16.7052 16.6829 14.479C18.321 12.2528 19.5869 10.7489 20.4804 9.99704C20.6591 9.83486 20.8676 9.76114 21.1059 9.76114L21.8356 9.86435Z" fill="#D9D9D9"/>
<path d="M39.7356 19.8604C40.51 19.8604 40.8972 20.1258 40.8972 20.6418C40.8972 20.922 40.8376 21.1284 40.7035 21.261C40.5695 21.3937 40.2866 21.8213 39.8547 22.5732C39.4228 23.3104 38.9463 24.2539 38.425 25.4187C37.9038 26.5686 37.5613 27.5564 37.4124 28.3673C37.3826 28.4705 37.3677 28.6032 37.3677 28.7949C37.3677 29.3551 37.5166 29.6205 37.8294 29.6205C38.1421 29.6205 38.4995 29.4731 38.9165 29.193C39.3335 28.8981 39.7058 28.6032 40.0334 28.2641C40.361 27.9398 40.6738 27.6007 40.9865 27.2616C41.2992 26.9225 41.478 26.7161 41.5375 26.6718C41.5971 26.6276 41.6864 26.5981 41.8056 26.5981C41.9992 26.5981 42.1183 26.7456 42.163 27.0404C42.2077 27.3353 42.2226 27.6302 42.2226 27.9545C42.2226 28.2789 42.1928 28.4853 42.1332 28.6032C41.8354 29.1782 41.195 29.8711 40.1823 30.682C39.1846 31.4929 38.2612 31.891 37.4422 31.891C36.6231 31.891 36.0125 31.6403 35.6402 31.1538C35.2679 30.6673 35.0594 30.107 35.0594 29.5173C35.0594 28.9128 35.1637 28.3968 35.3721 27.9398C34.5233 29.0308 33.5553 29.9449 32.4681 30.7115C31.3661 31.4634 30.4875 31.8467 29.7876 31.8467C29.0876 31.8467 28.5366 31.6403 28.0898 31.2275C27.5239 30.7115 27.2559 30.0038 27.2559 29.0897C27.2559 28.1757 27.4643 27.2616 27.8813 26.3327C28.2983 25.4187 28.8345 24.5635 29.5046 23.8116C30.1748 23.045 30.9193 22.3521 31.7235 21.7328C33.4064 20.4207 34.97 19.772 36.3997 19.772C36.9507 19.772 37.3975 19.8604 37.74 20.0374C38.0825 20.2143 38.3059 20.4502 38.3953 20.7155C38.6335 20.347 38.842 20.1258 39.0207 20.0226C39.1548 19.9047 39.4079 19.8604 39.7356 19.8604ZM37.7102 21.5412C35.9678 21.5412 34.1659 22.4995 32.3043 24.4161C31.6491 25.1091 31.0385 25.9199 30.4726 26.8783C29.9067 27.8366 29.6386 28.4853 29.6386 28.8391C29.6386 29.1929 29.7429 29.3699 29.9514 29.3699C30.2343 29.3699 31.0236 28.8096 32.3341 27.7039C33.6446 26.5981 34.5084 25.7725 34.9254 25.2417C35.4019 24.652 36.3252 23.4136 37.7102 21.5412Z" fill="#D9D9D9"/>
<path d="M51.3215 11.8696L51.947 12.0171C52.0363 12.0171 52.1257 12.0613 52.1853 12.1498C52.2597 12.2382 52.2895 12.3267 52.2895 12.4004C52.2895 12.4741 52.1853 12.6953 51.9619 13.0491C51.7385 13.4029 51.5002 13.801 51.2024 14.2433C50.9045 14.6856 50.7556 14.9362 50.7407 14.9805C51.53 14.9215 52.0959 14.892 52.4236 14.892C52.7512 14.892 52.9746 14.9215 53.1086 14.9657C53.2277 15.01 53.3766 15.1426 53.5256 15.3491C53.6894 15.5555 53.8234 15.7176 53.9575 15.8208C54.0915 15.924 54.1511 16.0862 54.1511 16.2926C54.1511 16.499 54.017 16.6907 53.7638 16.8234C53.5107 16.9708 53.2277 17.0593 52.9299 17.0888C50.562 17.3247 49.2664 17.4426 49.0281 17.4573C48.2091 18.7105 47.0474 20.6566 45.5731 23.2957C44.0988 25.9348 43.3095 27.6007 43.2201 28.2642C43.1755 28.5738 43.1606 28.8097 43.1606 29.0014C43.1606 29.3994 43.3691 29.5911 43.7861 29.5911C44.203 29.5911 44.6647 29.4289 45.171 29.1193C45.6774 28.795 46.1539 28.4559 46.5709 28.0873C47.7176 27.0847 48.3282 26.5687 48.4027 26.5687C48.6707 26.5687 48.8047 27.0258 48.8047 27.9251C48.8047 28.4116 48.5814 28.8539 48.1197 29.252C47.0921 30.1219 46.2284 30.7853 45.5284 31.2276C44.8285 31.6699 44.1286 31.8911 43.4137 31.8911C43.2648 31.8911 43.1159 31.8763 42.9819 31.8468C42.1628 31.6994 41.5671 31.4045 41.1948 30.9622C40.8076 30.5199 40.6289 29.9302 40.6289 29.193C40.6289 28.4559 40.8523 27.5418 41.2991 26.4803C41.7458 25.4187 42.2968 24.2835 42.967 23.0893C44.069 21.1284 45.171 19.3003 46.2582 17.59L45.6774 17.6638C44.5009 17.7964 43.8158 17.8554 43.6222 17.8554H43.4882C43.1904 17.8554 42.9074 17.7964 42.6393 17.6785C42.3713 17.5605 42.2224 17.4131 42.2224 17.2509C42.2224 17.074 42.2968 16.9118 42.4458 16.7497C42.5947 16.5875 42.684 16.4548 42.7138 16.3663C42.7883 16.1452 43.0563 15.8946 43.518 15.6292C43.9796 15.3638 44.3222 15.2164 44.5605 15.2016C44.7987 15.1869 45.0221 15.1721 45.2455 15.1574C45.4689 15.1426 45.7072 15.1426 45.9752 15.1279C46.2433 15.1132 46.4518 15.1132 46.6007 15.0984L47.9708 15.0394C48.8196 13.7715 49.4153 12.9459 49.7281 12.5921C50.0557 12.2235 50.2344 12.0318 50.2791 12.0023C50.3237 11.9728 50.428 11.9433 50.5918 11.9433L51.3215 11.8696Z" fill="#D9D9D9"/>
<path d="M60.4811 26.5978C60.6747 26.5978 60.7939 26.7453 60.8385 27.0401C60.8832 27.335 60.8981 27.6299 60.8981 27.9542C60.8981 28.2786 60.8683 28.485 60.8087 28.6029C60.5109 29.1632 59.8706 29.8561 58.8728 30.667C57.875 31.4779 56.9219 31.8907 56.0284 31.8907C55.4773 31.8907 54.971 31.7285 54.4945 31.4042C54.0328 31.0798 53.7945 30.5048 53.7945 29.6939C53.7945 28.883 54.0179 28.0722 54.4498 27.2908C51.9181 30.4311 49.9523 31.9939 48.5078 31.9939C47.9419 31.9939 47.4802 31.7875 47.1228 31.3894C46.7654 30.9913 46.6016 30.5785 46.6016 30.1362C46.6016 29.7087 46.6611 29.2664 46.7803 28.8093C46.8994 28.3523 47.0334 27.9395 47.1675 27.5709C47.3015 27.2023 47.51 26.76 47.778 26.2292C48.0461 25.6985 48.2546 25.3152 48.3737 25.0645C48.4929 24.8139 48.7163 24.46 49.0141 23.9735C49.3119 23.487 49.6843 22.8235 50.1608 21.9979C50.6374 21.1723 51.0245 20.5531 51.3373 20.155C51.65 19.7569 51.9479 19.5505 52.2457 19.5505C52.5436 19.5505 52.7967 19.6685 53.0201 19.9044C53.2435 20.1403 53.3626 20.3467 53.3626 20.4941C53.3626 20.6415 53.0201 21.3197 52.3351 22.5287C50.3246 26.1408 49.312 28.2343 49.312 28.8388C49.312 28.9862 49.3715 29.06 49.4758 29.06C49.9672 29.06 51.1884 28.0132 53.1244 25.9196C55.0604 23.8261 56.1922 22.4844 56.5049 21.8947C56.8176 21.305 57.1006 20.8037 57.3984 20.4056C57.6814 20.0076 57.9048 19.7569 58.0537 19.6685C58.4856 19.3883 59.0515 19.2409 59.7514 19.2114C59.8706 19.2114 59.945 19.2114 60.0046 19.2262C60.0641 19.2409 60.1386 19.3294 60.2131 19.4768C60.2875 19.6242 60.3322 19.7569 60.3322 19.8601C60.2429 20.1403 59.8408 20.8922 59.111 22.1159C58.3962 23.3396 57.9941 24.0325 57.9197 24.1799C56.7134 26.6421 56.1177 28.2491 56.1177 28.9862C56.1177 29.4138 56.2815 29.6202 56.6091 29.6202C57.2048 29.5465 57.9197 29.0747 58.7536 28.2196C59.0664 27.91 59.3642 27.5856 59.6621 27.2613C59.9599 26.9369 60.1535 26.7453 60.2131 26.701C60.2875 26.6273 60.3769 26.5978 60.4811 26.5978Z" fill="#D9D9D9"/>
<path d="M64.9036 23.104C67.3013 20.406 69.3564 19.0496 71.0393 19.0496C71.4562 19.0496 71.7988 19.1675 72.0668 19.4182C72.3349 19.6688 72.4689 19.9784 72.4689 20.3765C72.4689 20.7746 72.186 21.4233 71.6201 22.3521C71.0542 23.2662 70.5329 24.0476 70.0564 24.6815C69.8032 25.0059 69.5202 25.1681 69.1926 25.1681C68.8799 25.1681 68.6267 25.0501 68.448 24.8142C68.2693 24.5783 68.18 24.313 68.18 24.0034C68.18 23.3104 68.5523 22.5143 69.3118 21.6444L69.282 21.6149C68.9394 21.6444 68.1204 22.3079 66.7801 23.5758C65.4547 24.8585 64.3229 26.0084 63.3847 27.011C62.4613 28.0283 61.4486 29.252 60.3466 30.7116C60.0339 31.1391 59.7658 31.3603 59.5425 31.3603C59.3191 31.3603 59.0361 31.2866 58.6787 31.1539C58.3213 31.0212 58.0979 30.918 58.0234 30.859C57.949 30.8 57.9043 30.6968 57.9043 30.5494C57.9043 30.4167 57.949 30.2398 58.0234 30.0629C58.0979 29.8712 58.2617 29.6058 58.4702 29.2667C58.6787 28.9276 59.0212 28.3674 59.468 27.6007C59.9148 26.8341 60.5998 25.6694 61.538 24.1213C62.4762 22.5733 63.0272 21.6297 63.2208 21.3053C63.608 20.6419 63.9208 20.1553 64.1739 19.8605C64.6356 19.2855 65.41 19.0054 66.4971 19.0054C66.7354 19.0054 66.8694 19.1528 66.8694 19.4624C66.8694 19.9342 66.4227 20.8335 65.544 22.131L64.9036 23.104Z" fill="#D9D9D9"/>
<path d="M81.3303 20.0376C81.3303 20.7011 81.0623 21.2908 80.5112 21.7921C79.9602 22.2934 79.3497 22.544 78.6497 22.544C78.4263 22.544 78.2774 22.485 78.2029 22.3818C78.1285 22.2786 78.0987 22.1312 78.0987 21.969C78.0987 21.8068 78.1136 21.6299 78.1583 21.4677C77.786 21.5857 77.3839 21.7773 76.9371 22.028C76.4903 22.2786 75.9393 22.6472 75.2841 23.1485C74.6288 23.6497 74.3012 24.0036 74.3012 24.2542C74.3012 24.3279 74.4203 24.3722 74.6586 24.3722C74.8969 24.3722 75.2692 24.2837 75.7606 24.1215C76.2521 23.9593 76.6095 23.8709 76.8031 23.8709C76.9967 23.8709 77.1307 23.8856 77.1903 23.9004C77.3243 23.9741 77.4583 24.1215 77.6221 24.3574C77.7711 24.5933 77.8455 24.785 77.8455 24.9177C77.8455 25.0503 77.7115 25.2273 77.4434 25.4484C77.1754 25.6696 76.8775 25.8317 76.5499 25.9497C76.2074 26.0676 75.984 26.1561 75.8798 26.2151C73.7353 27.4093 72.663 28.2202 72.663 28.6625C72.663 29.4439 73.3332 29.8419 74.6884 29.8419C75.5521 29.8419 76.4308 29.5765 77.2945 29.031C78.0391 28.574 78.7093 28.1022 79.305 27.6157C79.9007 27.1439 80.273 26.849 80.4368 26.7311C80.6006 26.6131 80.7197 26.5689 80.7942 26.5689C81.0623 26.5689 81.1963 26.8638 81.1963 27.4535C81.1963 28.0432 81.1665 28.4266 81.092 28.6035C81.0176 28.7952 80.824 29.0163 80.4815 29.2964C78.3072 31.0509 76.2372 31.9355 74.3012 31.9355C73.2587 31.9355 72.4396 31.788 71.8142 31.5079C70.6675 30.9919 70.1016 30.2105 70.1016 29.149C70.1016 27.7631 71.0696 26.7016 73.0205 25.9939C72.6333 25.817 72.3801 25.6106 72.2758 25.3305C72.1567 25.0651 72.112 24.6375 72.112 24.0478C72.112 23.4581 72.395 22.8389 72.946 22.1754C73.497 21.512 74.182 20.9665 74.9862 20.5536C76.7733 19.5953 78.3816 19.1235 79.7815 19.1235C80.124 19.1235 80.4517 19.1973 80.8091 19.3594C81.1665 19.5216 81.3303 19.7428 81.3303 20.0376Z" fill="#D9D9D9"/>
<path d="M116.089 9.77593H116.282C116.342 9.77593 116.387 9.77593 116.401 9.79067C116.416 9.80542 116.431 9.80542 116.461 9.82016C116.491 9.82016 116.506 9.8349 116.536 9.86439C116.58 9.90862 116.655 9.95285 116.744 9.99708C116.863 10.0855 116.923 10.1887 116.923 10.3067C116.923 10.4246 116.804 10.6753 116.565 11.0586C116.327 11.4419 115.716 12.3708 114.719 13.8746C112.44 17.3245 110.4 20.5386 108.598 23.4872C105.485 28.6179 103.907 31.198 103.877 31.2275C103.847 31.2569 103.832 31.2864 103.818 31.3159C103.803 31.3749 103.773 31.4044 103.698 31.4044L103.49 31.3601L103.073 31.4634L102.835 31.4191L102.581 31.4634H102.492L101.643 31.5813C101.137 31.5813 100.884 31.4044 100.884 31.0653C100.884 30.9178 100.928 30.7409 101.018 30.5345C101.331 29.7974 102.924 27.1288 105.783 22.4994C103.907 22.5436 102.045 22.5731 100.214 22.5731L96.9373 22.5584C96.4012 23.4135 95.6566 24.6225 94.7184 26.2C92.693 29.6352 91.6208 31.3601 91.4868 31.3896C91.3527 31.4191 91.2485 31.4486 91.1591 31.4486C91.0698 31.4486 90.9953 31.4044 90.9357 31.3012C90.8613 31.2127 90.8166 31.1537 90.7868 31.1537C90.757 31.1537 90.7124 31.1685 90.623 31.2127C90.5485 31.2569 90.4294 31.2717 90.2656 31.2717L89.9082 31.2569L89.7742 31.1685C89.7593 31.1685 89.7444 31.1832 89.7295 31.2127C89.7146 31.2422 89.6699 31.2569 89.6103 31.2569C89.1785 31.2569 88.9551 31.08 88.9551 30.7114C88.9551 30.4755 89.0444 30.1512 89.2082 29.7531C89.387 29.3551 89.6103 28.9275 89.8933 28.4705C90.1762 28.0134 90.8911 26.9077 92.0676 25.1827C93.2291 23.4577 93.8099 22.5879 93.8099 22.5731C93.6163 22.5584 93.393 22.5584 93.1398 22.5436C92.6186 22.5436 92.2611 22.5289 92.0378 22.4847C91.457 22.3815 91.0549 21.9097 90.8464 21.0693C90.7273 20.6565 90.6826 20.3911 90.6975 20.2584C90.6975 19.993 90.8166 19.8456 91.0549 19.8456L91.457 19.9488C91.6655 19.9636 92.142 19.9783 92.9164 20.0225C93.6908 20.0668 94.2418 20.0815 94.5843 20.0815L95.4481 20.052C96.7735 18.0027 98.3521 15.6733 100.199 13.0784C98.8584 14.1694 97.3692 14.7149 95.7311 14.7149C94.9567 14.7149 94.2865 14.538 93.7355 14.1694C93.1696 13.8009 92.9015 13.3291 92.9015 12.7688C92.9015 12.2086 93.11 11.7663 93.5419 11.4272C93.9738 11.1028 94.3758 10.9407 94.763 10.9407C95.1502 10.9407 95.3438 10.9996 95.3438 11.1176C95.3438 11.1618 95.2843 11.206 95.18 11.2503C95.0758 11.3092 95.0162 11.3535 95.0162 11.3977C95.0162 11.5599 95.1949 11.7073 95.5523 11.8253C95.9097 11.9432 96.3118 12.0169 96.7586 12.0169C97.2054 12.0169 97.7415 11.8842 98.3968 11.6336C99.052 11.383 99.7222 11.0439 100.422 10.6458C101.405 10.0855 102.179 9.61375 102.745 9.24517C103.073 9.08299 103.371 9.00928 103.669 9.00928C103.966 9.00928 104.16 9.03876 104.294 9.11248C104.428 9.17145 104.517 9.24517 104.577 9.30414C104.637 9.36312 104.711 9.45158 104.771 9.55478C104.845 9.65798 104.905 9.74644 104.979 9.79067C105.039 9.84965 105.083 9.90862 105.083 9.98234C105.083 10.0561 105.039 10.1593 104.964 10.3214C104.89 10.4689 104.503 11.0881 103.803 12.1643C103.103 13.2406 102.194 14.6117 101.092 16.2777C99.9902 17.9437 99.186 19.1674 98.6797 19.9636C101.405 19.9636 104.339 19.9193 107.496 19.8161C111.338 13.8156 113.363 10.6753 113.572 10.3804C113.78 10.0855 113.974 9.89388 114.153 9.80542C114.331 9.71696 114.54 9.67273 114.793 9.67273L116.089 9.77593Z" fill="#D9D9D9"/>
<path d="M121.062 19.831C121.375 19.831 121.687 19.9637 122 20.2438C122.328 20.524 122.477 20.9368 122.477 21.497C122.477 22.0573 122.283 22.7797 121.881 23.679C121.479 24.5636 120.943 25.4777 120.243 26.4065C119.558 27.3206 118.783 28.1905 117.964 29.0014C117.13 29.8123 116.237 30.4757 115.284 30.9917C114.316 31.5077 113.452 31.7731 112.663 31.7731C111.873 31.7731 111.248 31.5225 110.771 31.0359C110.295 30.5494 110.057 29.8712 110.057 29.0014C110.057 28.1315 110.28 27.1585 110.712 26.1117C111.144 25.0502 111.695 24.1213 112.38 23.3104C113.065 22.4996 113.795 21.7771 114.599 21.1284C116.252 19.8015 117.711 19.1528 118.962 19.1528C119.528 19.1528 119.945 19.2855 120.228 19.5656C120.332 19.6541 120.377 19.7426 120.377 19.8015V19.89C120.541 19.831 120.764 19.831 121.062 19.831ZM119.528 21.8361H119.424C119.066 21.8361 118.888 21.5855 118.888 21.0695C118.143 21.3054 117.369 21.7329 116.55 22.3374C115.731 22.9419 115.001 23.6643 114.36 24.4899C113.05 26.1412 112.395 27.5418 112.38 28.677C112.38 29.2373 112.588 29.5174 113.005 29.5174C113.422 29.5174 114.048 29.2373 114.867 28.7065C115.686 28.1757 116.505 27.3943 117.324 26.3771C118.128 25.3745 118.739 24.4899 119.141 23.7528C119.543 23.0156 119.751 22.5143 119.751 22.2342C119.737 21.9688 119.662 21.8361 119.528 21.8361Z" fill="#D9D9D9"/>
<path d="M122.149 31.4337L121.404 31.4043H121.136C121.032 31.3748 120.928 31.3158 120.809 31.2273C120.689 31.1389 120.6 31.0652 120.541 31.0357C120.481 31.0062 120.451 30.9177 120.451 30.8145C120.451 30.7113 120.496 30.5197 120.57 30.269C122.551 25.9492 124.472 22.4845 126.334 19.9045C126.542 19.6243 126.87 19.4032 127.316 19.2558C127.763 19.1083 128.21 19.0346 128.642 19.0346C128.895 19.0346 129.029 19.2263 129.029 19.6243C129.029 19.7423 128.984 19.8897 128.91 20.0666C128.836 20.2583 128.627 20.5532 128.299 20.9807C127.972 21.4083 127.585 21.8948 127.138 22.4256C126.691 22.9563 126.438 23.2807 126.378 23.3691C127.778 21.939 129.029 20.8775 130.161 20.1698C131.293 19.4769 132.097 19.1231 132.603 19.1231C133.11 19.1231 133.497 19.2705 133.765 19.5506C134.033 19.8308 134.167 20.1404 134.167 20.4647C134.167 20.7891 134.137 21.0692 134.092 21.2756C134.048 21.4967 133.958 21.7179 133.839 21.9538C133.72 22.1897 133.616 22.3961 133.527 22.5583C133.437 22.7204 133.288 22.9416 133.095 23.207C132.886 23.4723 132.752 23.664 132.678 23.7672C132.603 23.8704 132.439 24.0621 132.201 24.3422C131.963 24.6223 131.829 24.7845 131.814 24.814C132.097 24.5339 132.499 24.1211 133.005 23.5608C133.512 23.0006 133.944 22.5435 134.301 22.1749C134.658 21.8064 135.09 21.3788 135.626 20.907C136.162 20.4352 136.654 20.0519 137.101 19.7718C138.203 19.0936 139.32 18.7397 140.451 18.7397C140.839 18.7397 141.166 18.8577 141.434 19.1083C141.702 19.359 141.836 19.6391 141.836 19.9782C141.836 20.3173 141.419 21.1282 140.6 22.3961C139.781 23.664 138.947 24.9467 138.128 26.2294C137.309 27.512 136.892 28.3229 136.892 28.662C136.892 29.119 136.982 29.3992 137.145 29.4876C137.324 29.5761 137.533 29.6056 137.771 29.5908C138.009 29.5761 138.367 29.4139 138.798 29.119C139.245 28.8242 139.632 28.5293 139.975 28.205C140.541 27.7037 141.047 27.2172 141.539 26.7454C141.643 26.6569 141.747 26.6127 141.881 26.6127C142.075 26.6127 142.194 26.7601 142.239 27.055C142.283 27.3498 142.298 27.6447 142.298 27.9691C142.298 28.2934 142.268 28.4998 142.209 28.6178C141.911 29.178 141.256 29.871 140.258 30.6966C139.245 31.5075 138.277 31.9203 137.354 31.9203C137.235 31.9203 137.16 31.9203 137.116 31.9055C136.073 31.8023 135.343 31.5222 134.941 31.0504C134.539 30.5786 134.346 30.0184 134.346 29.3844C134.346 28.7505 134.569 27.9543 135.016 27.0402C135.463 26.1261 135.939 25.2858 136.475 24.5486C137.011 23.8114 137.488 23.1333 137.935 22.5288C138.381 21.9243 138.605 21.5999 138.605 21.5557C138.605 21.5115 138.56 21.482 138.486 21.482C138.173 21.482 137.473 21.9833 136.371 23.0006C134.509 24.7255 132.901 26.3915 131.546 27.9838C131.188 28.4114 130.34 29.4729 129.014 31.1979C128.865 31.4043 128.612 31.5075 128.285 31.5075C127.957 31.5075 127.614 31.4485 127.257 31.3158C126.9 31.1831 126.721 31.0209 126.721 30.8293C126.721 30.7261 127.525 29.3107 129.148 26.5832C130.771 23.8557 131.576 22.3666 131.576 22.1307C131.576 21.8801 131.427 21.7621 131.129 21.7621C130.831 21.7621 130.206 22.2044 129.267 23.089C126.691 25.5217 124.695 27.9543 123.281 30.3575C123.191 30.5049 123.013 30.7261 122.745 31.0209C122.477 31.3158 122.238 31.4337 122.149 31.4337Z" fill="#D9D9D9"/>
<path d="M151.682 20.0376C151.682 20.7011 151.414 21.2908 150.863 21.7921C150.312 22.2934 149.701 22.544 149.001 22.544C148.778 22.544 148.629 22.485 148.555 22.3818C148.48 22.2786 148.45 22.1312 148.45 21.969C148.45 21.8068 148.465 21.6299 148.51 21.4677C148.138 21.5857 147.735 21.7773 147.289 22.028C146.842 22.2786 146.291 22.6472 145.636 23.1485C144.98 23.6497 144.653 24.0036 144.653 24.2542C144.653 24.3279 144.772 24.3722 145.01 24.3722C145.248 24.3722 145.621 24.2837 146.112 24.1215C146.604 23.9593 146.961 23.8709 147.155 23.8709C147.348 23.8709 147.482 23.8856 147.542 23.9004C147.676 23.9741 147.81 24.1215 147.974 24.3574C148.123 24.5933 148.197 24.785 148.197 24.9177C148.197 25.0503 148.063 25.2273 147.795 25.4484C147.527 25.6696 147.229 25.8317 146.901 25.9497C146.559 26.0676 146.336 26.1561 146.231 26.2151C144.087 27.4093 143.015 28.2202 143.015 28.6625C143.015 29.4439 143.685 29.8419 145.04 29.8419C145.904 29.8419 146.782 29.5765 147.646 29.031C148.391 28.574 149.061 28.1022 149.657 27.6157C150.252 27.1439 150.625 26.849 150.788 26.7311C150.952 26.6131 151.071 26.5689 151.146 26.5689C151.414 26.5689 151.548 26.8638 151.548 27.4535C151.548 28.0432 151.518 28.4266 151.444 28.6035C151.369 28.7952 151.176 29.0163 150.833 29.2964C148.659 31.0509 146.589 31.9355 144.653 31.9355C143.61 31.9355 142.791 31.788 142.166 31.5079C141.019 30.9919 140.453 30.2105 140.453 29.149C140.453 27.7631 141.421 26.7016 143.372 25.9939C142.985 25.817 142.732 25.6106 142.627 25.3305C142.508 25.0651 142.464 24.6375 142.464 24.0478C142.464 23.4581 142.747 22.8389 143.298 22.1754C143.849 21.512 144.534 20.9665 145.338 20.5536C147.125 19.5953 148.733 19.1235 150.133 19.1235C150.476 19.1235 150.803 19.1973 151.161 19.3594C151.518 19.5216 151.682 19.7428 151.682 20.0376Z" fill="#D9D9D9"/>
<path d="M0.71875 35.5175C4.63541 37.1393 8.62652 38.3925 12.6921 39.3508C16.7279 40.3533 20.8382 41.061 24.9484 41.5033C27.0036 41.7834 29.0736 41.8129 31.1138 42.0046C33.1838 42.0193 35.239 42.1815 37.2941 42.0636L40.3768 41.9898C41.4044 41.9751 42.4319 41.8424 43.4595 41.7834C44.487 41.695 45.5146 41.6507 46.5273 41.5181L49.5802 41.0905C53.6755 40.6482 57.6518 39.7046 61.6131 38.5694C65.6191 37.4784 69.4018 36.0335 73.4078 34.5297C77.5031 33.0406 81.941 32.0676 86.4385 32.5394C88.6574 32.8195 90.8913 33.5272 92.7081 34.8246C94.5399 36.1073 95.8504 37.9354 96.6843 39.8521C95.4334 38.1418 93.8697 36.7412 92.0677 35.8714C90.2658 35.0015 88.2851 34.6477 86.3193 34.7066C82.3431 34.7656 78.4264 36.0778 74.7481 37.729C71.0101 39.5572 66.9594 41.2084 62.8789 42.5796C58.7687 43.8917 54.5244 44.9385 50.2205 45.4693C41.6575 46.5898 32.886 46.6045 24.4272 44.909C20.1829 44.1424 16.0429 42.9482 12.0368 41.4296C8.06061 39.8521 4.17375 38.0091 0.71875 35.5175Z" fill="#D9D9D9"/>
<path d="M143.133 10.9703C139.812 9.56968 136.431 8.47867 133.006 7.62356C129.596 6.72422 126.141 6.09026 122.671 5.64796C120.943 5.38258 119.186 5.3236 117.458 5.1172C115.716 5.07297 113.989 4.89605 112.246 4.96976C111.382 4.98451 110.504 4.98451 109.64 4.96976C108.776 4.96976 107.898 5.05822 107.034 5.08771C106.17 5.14668 105.292 5.16143 104.428 5.24989L101.836 5.5595C98.3666 5.83962 95.001 6.5473 91.6353 7.41715C88.225 8.22804 84.9934 9.37802 81.5533 10.528C78.0238 11.6927 74.1965 12.4004 70.3543 11.8696C68.463 11.56 66.5568 10.8966 65.0527 9.71711C63.5188 8.55239 62.4763 6.96011 61.8359 5.29412C62.8933 6.7537 64.2038 7.94791 65.7079 8.68508C67.212 9.42225 68.8651 9.73185 70.5181 9.71711C73.854 9.71711 77.1601 8.65559 80.2874 7.32869C83.4744 5.82488 86.974 4.49798 90.4588 3.40697C93.9734 2.3602 97.6369 1.56406 101.3 1.18073C108.612 0.414079 116.088 0.590998 123.252 2.27174C126.841 3.02365 130.34 4.17362 133.691 5.58898C137.057 7.03383 140.303 8.71457 143.133 10.9703Z" fill="#D9D9D9"/>
</svg>
