<svg width="123" height="49" viewBox="0 0 123 49" fill="none" xmlns="http://www.w3.org/2000/svg">
<path d="M0.681641 30.3089V0.144043H18.6268V30.2941H0.681641V30.3089ZM16.4526 23.291L16.9142 19.9591L15.2463 19.7969L14.7399 22.3622C13.6975 22.8782 12.4167 23.1289 10.8828 23.1289C8.79792 23.1289 7.14487 22.4802 5.9386 21.168C4.71744 19.8559 4.12174 18.1309 4.12174 15.9784C4.12174 13.8848 4.71744 12.1598 5.89392 10.8035C7.07041 9.44708 8.61924 8.76888 10.5403 8.76888C11.5232 8.76888 12.3572 8.88683 13.0273 9.10798C13.6975 9.32913 14.3081 9.624 14.8889 10.0073L15.3803 12.5432L17.078 12.381L16.5866 9.04901C15.8718 8.44453 15.0229 7.958 14.04 7.57468C13.0571 7.20609 11.836 7.01443 10.3914 7.01443C8.6788 7.01443 7.20447 7.42724 5.96841 8.26761C4.73236 9.10798 3.76436 10.2137 3.07931 11.5849C2.39427 12.9707 2.05175 14.4598 2.05175 16.0521C2.05175 18.5732 2.84103 20.6815 4.41961 22.3622C5.99819 24.043 8.05331 24.8833 10.5999 24.8833C13.1018 24.8833 15.0527 24.3526 16.4526 23.291Z" fill="#D9D9D9"/>
<path d="M24.7188 30.3089V0.144043H32.4329V30.2941H24.7188V30.3089ZM25.5378 24.6179H31.6287V23.0994H29.529V6.26252H25.508V7.78108H27.6376V23.0994H25.5378V24.6179Z" fill="#D9D9D9"/>
<path d="M38.5234 30.3089V0.144043H52.0754V30.2941H38.5234V30.3089ZM40.9806 13.6489L40.5488 16.3912L42.1125 16.5828L42.5741 14.5335C43.2443 14.2092 44.0038 14.047 44.8973 14.047C45.9696 14.047 46.6993 14.3124 47.0716 14.8431C47.4439 15.3739 47.6226 16.0668 47.6226 16.9219V17.9835C47.295 17.954 46.9525 17.9245 46.5801 17.9097C46.2078 17.895 45.8505 17.8803 45.493 17.8803C44.1527 17.8803 42.872 18.1161 41.6806 18.5879C40.4892 19.0597 39.8935 20.0475 39.8935 21.5366C39.8935 22.8045 40.2956 23.6744 41.1147 24.1462C41.9338 24.6327 42.738 24.8686 43.5273 24.8686C44.4952 24.8686 45.3292 24.6179 46.0142 24.1167C46.6993 23.6154 47.2354 23.0552 47.6226 22.4065V22.4654C47.6524 24.0724 48.3821 24.8686 49.8118 24.8686C50.3628 24.8686 50.884 24.7359 51.3754 24.4705L51.3457 23.2468C51.1074 23.35 50.8393 23.409 50.5415 23.409C49.8564 23.409 49.5139 22.9814 49.5139 22.1263V16.4796C49.5139 13.8258 48.0843 12.4989 45.2249 12.4989C44.4357 12.4989 43.691 12.5874 42.9911 12.7643C42.2763 12.956 41.6061 13.2509 40.9806 13.6489ZM47.6077 20.1655C47.5333 21.1385 47.1312 21.9199 46.4014 22.4802C45.6717 23.0552 44.8973 23.3353 44.0634 23.3353C43.5421 23.3353 43.0358 23.1878 42.5593 22.9077C42.0678 22.6276 41.8295 22.0968 41.8295 21.3302C41.8295 20.4014 42.2018 19.8116 42.9167 19.5315C43.6464 19.2514 44.4505 19.1187 45.359 19.1187C45.7611 19.1187 46.1483 19.1334 46.5206 19.1777C46.8929 19.2072 47.2652 19.2366 47.5928 19.2514V20.1655H47.6077Z" fill="#D9D9D9"/>
<path d="M58.1816 30.3089V0.144043H70.4975V30.2941H58.1816V30.3089ZM69.2019 21.1828C69.2019 20.2392 68.9487 19.5462 68.4424 19.0892C67.936 18.6322 67.3255 18.3226 66.5808 18.1456C65.8362 17.9687 65.1065 17.8213 64.3768 17.7033C63.6471 17.5854 63.0216 17.3937 62.5153 17.1431C62.009 16.8925 61.7558 16.4502 61.7558 15.8162C61.7558 15.2117 61.994 14.7694 62.4855 14.4745C62.9769 14.1797 63.5875 14.047 64.347 14.047C65.2256 14.047 66.0448 14.2387 66.8043 14.6367L67.1021 16.5534L68.6658 16.3617L68.3679 13.5899C67.8616 13.2803 67.251 13.0297 66.5213 12.8233C65.7916 12.6169 65.0172 12.4989 64.1832 12.4989C63.0812 12.4989 62.0685 12.7643 61.1303 13.2803C60.1921 13.7964 59.7304 14.681 59.7304 15.9489C59.7304 16.8777 59.9836 17.5559 60.4899 17.9835C60.9963 18.4258 61.6218 18.7206 62.3813 18.8975C63.1408 19.0745 63.8853 19.2219 64.63 19.3546C65.3746 19.4725 66.0001 19.6789 66.5064 19.9443C67.0127 20.2097 67.2659 20.6667 67.2659 21.3302C67.2659 22.0084 66.9382 22.5097 66.283 22.834C65.6277 23.1584 64.8831 23.3205 64.0343 23.3205C63.0812 23.3205 62.1876 23.1289 61.3686 22.7308L61.443 21.1533L59.9389 20.9911L59.5666 23.6891C60.0878 24.0282 60.7729 24.3083 61.6068 24.5295C62.4408 24.7506 63.2748 24.8686 64.1236 24.8686C65.5682 24.8686 66.7745 24.5442 67.7425 23.8808C68.7105 23.2468 69.2019 22.3327 69.2019 21.1828Z" fill="#D9D9D9"/>
<path d="M76.5879 30.3089V0.144043H88.9037V30.2941H76.5879V30.3089ZM87.6081 21.1828C87.6081 20.2392 87.3549 19.5462 86.8486 19.0892C86.3422 18.6322 85.7317 18.3226 84.987 18.1456C84.2424 17.9687 83.5127 17.8213 82.783 17.7033C82.0533 17.5854 81.4278 17.3937 80.9215 17.1431C80.4152 16.8925 80.162 16.4502 80.162 15.8162C80.162 15.2117 80.4002 14.7694 80.8917 14.4745C81.3831 14.1797 81.9937 14.047 82.7532 14.047C83.6319 14.047 84.451 14.2387 85.2105 14.6367L85.5083 16.5534L87.072 16.3617L86.7741 13.5899C86.2678 13.2803 85.6572 13.0297 84.9275 12.8233C84.1978 12.6169 83.4234 12.4989 82.5894 12.4989C81.4874 12.4989 80.4747 12.7643 79.5365 13.2803C78.5983 13.7964 78.1367 14.681 78.1367 15.9489C78.1367 16.8777 78.3898 17.5559 78.8962 17.9835C79.4025 18.4258 80.028 18.7206 80.7875 18.8975C81.547 19.0745 82.2916 19.2219 83.0362 19.3546C83.7808 19.4725 84.4063 19.6789 84.9126 19.9443C85.4189 20.2097 85.6721 20.6667 85.6721 21.3302C85.6721 22.0084 85.3445 22.5097 84.6893 22.834C84.034 23.1584 83.2894 23.3205 82.4405 23.3205C81.4874 23.3205 80.5938 23.1289 79.7748 22.7308L79.8493 21.1533L78.3452 20.9911L77.9729 23.6891C78.4941 24.0282 79.1791 24.3083 80.0131 24.5295C80.8471 24.7506 81.681 24.8686 82.5299 24.8686C83.9744 24.8686 85.1807 24.5442 86.1487 23.8808C87.1167 23.2468 87.6081 22.3327 87.6081 21.1828Z" fill="#D9D9D9"/>
<path d="M94.9941 30.3089V0.144043H103.11V30.2941H94.9941V30.3089ZM96.1855 24.6179H102.276V23.0994H100.177V12.7496H96.1409V14.2681H98.3002V23.0994H96.2004V24.6179H96.1855ZM98.0918 7.25032V9.68297H100.147V7.25032H98.0918Z" fill="#D9D9D9"/>
<path d="M109.201 30.3089V0.144043H122.172V30.2941H109.201V30.3089ZM121.011 20.6225L119.388 20.2687C119.03 22.2738 117.943 23.2763 116.156 23.2763C114.965 23.2763 114.056 22.8782 113.431 22.0821C112.805 21.286 112.492 20.1655 112.492 18.7501C112.492 17.4674 112.775 16.3764 113.326 15.4624C113.877 14.5483 114.801 14.106 116.081 14.106C117.064 14.106 117.928 14.3271 118.643 14.7694L119.105 16.7745L120.668 16.5828L120.207 13.7226C119.596 13.2656 118.956 12.9412 118.285 12.7643C117.615 12.5874 116.886 12.4989 116.096 12.4989C114.235 12.4989 112.82 13.1476 111.897 14.4451C110.958 15.7425 110.497 17.2168 110.497 18.8533C110.497 20.7552 110.988 22.2443 111.986 23.291C112.969 24.3526 114.294 24.8833 115.947 24.8833C117.6 24.8833 118.822 24.4263 119.596 23.5269C120.37 22.6129 120.847 21.6545 121.011 20.6225Z" fill="#D9D9D9"/>
<path d="M8.44129 46.7777C8.09877 47.3969 7.59242 47.8835 6.93716 48.2226C6.26701 48.5617 5.47771 48.7386 4.5544 48.7386H1.88867V40.4233H4.5544C5.47771 40.4233 6.2819 40.5855 6.93716 40.9246C7.59242 41.2637 8.09877 41.7355 8.44129 42.3695C8.78382 43.0034 8.94762 43.7258 8.94762 44.581C8.94762 45.4213 8.78382 46.1585 8.44129 46.7777ZM6.96693 46.9399C7.54773 46.3796 7.83071 45.5982 7.83071 44.581C7.83071 43.5637 7.54773 42.7823 6.96693 42.222C6.38613 41.6618 5.55217 41.3817 4.45014 41.3817H2.94605V47.7803H4.45014C5.55217 47.7803 6.38613 47.5001 6.96693 46.9399Z" fill="#D9D9D9"/>
<path d="M14.4719 41.2932V44.1387H17.6589V44.9643H14.4719V47.8687H18.0163V48.7386H13.3848V40.4233H18.0163V41.2932H14.4719Z" fill="#D9D9D9"/>
<path d="M27.4286 47.6766C27.235 48.0157 26.952 48.2959 26.5648 48.5023C26.1776 48.7087 25.7011 48.8266 25.1203 48.8266C24.5692 48.8266 24.0629 48.7234 23.631 48.5318C23.1992 48.3254 22.8567 48.06 22.5886 47.7061C22.3354 47.3523 22.1865 46.9542 22.1418 46.5119H23.3034C23.3332 46.7478 23.4077 46.9837 23.5417 47.2049C23.6757 47.426 23.8842 47.6177 24.1374 47.7651C24.3905 47.9125 24.7033 47.9863 25.0756 47.9863C25.5521 47.9863 25.9245 47.8683 26.1776 47.6029C26.4308 47.3375 26.5648 47.0279 26.5648 46.6299C26.5648 46.2908 26.4755 46.0106 26.2968 45.8042C26.1181 45.5978 25.8947 45.4209 25.6415 45.303C25.3883 45.185 25.016 45.0523 24.5693 44.9049C24.0331 44.728 23.6162 44.5658 23.2885 44.4184C22.9609 44.2709 22.6928 44.035 22.4694 43.7254C22.2461 43.4158 22.127 43.0178 22.127 42.5165C22.127 42.0889 22.2312 41.7056 22.4397 41.3665C22.6482 41.0422 22.946 40.7768 23.3481 40.5999C23.7353 40.4229 24.2119 40.3345 24.7331 40.3345C25.5522 40.3345 26.2223 40.5261 26.6988 40.9242C27.1903 41.3223 27.4584 41.8235 27.5477 42.4428H26.3861C26.3265 42.1184 26.1478 41.8235 25.8798 41.5729C25.5968 41.3223 25.2245 41.1896 24.748 41.1896C24.3161 41.1896 23.9587 41.3075 23.7055 41.5287C23.4375 41.7498 23.3183 42.0742 23.3183 42.4723C23.3183 42.7966 23.4077 43.062 23.5715 43.2536C23.7502 43.4601 23.9587 43.6075 24.2119 43.7254C24.465 43.8434 24.8224 43.9613 25.2543 44.1088C25.7904 44.2857 26.2223 44.4479 26.5648 44.61C26.8924 44.7722 27.1754 45.0081 27.3988 45.3177C27.6222 45.6273 27.7413 46.0549 27.7413 46.5856C27.7115 46.969 27.6222 47.3375 27.4286 47.6766Z" fill="#D9D9D9"/>
<path d="M33.2375 40.4233V48.7386H32.1504V40.4233H33.2375Z" fill="#D9D9D9"/>
<path d="M44.2282 41.0571C44.8983 41.5437 45.3451 42.1924 45.5684 43.018H44.4218C44.2282 42.5167 43.8856 42.1039 43.424 41.809C42.9623 41.4994 42.4113 41.352 41.7709 41.352C41.205 41.352 40.6838 41.4847 40.237 41.7501C39.7902 42.0154 39.4329 42.384 39.1648 42.8706C38.9116 43.3571 38.7776 43.9321 38.7776 44.5955C38.7776 45.2737 38.9116 45.8634 39.1648 46.35C39.418 46.8365 39.7902 47.2198 40.2519 47.4852C40.7136 47.7506 41.2497 47.8833 41.8603 47.8833C42.3815 47.8833 42.8432 47.7653 43.275 47.5589C43.7069 47.3378 44.0494 47.0134 44.3324 46.6006C44.6153 46.1878 44.7643 45.6865 44.8238 45.1263H41.5178V44.3301H45.7322V45.3179C45.6578 45.9814 45.4493 46.5711 45.1068 47.1166C44.7643 47.6621 44.3026 48.0749 43.7218 48.3845C43.141 48.6942 42.4857 48.8563 41.7411 48.8563C40.937 48.8563 40.2221 48.6794 39.5966 48.3256C38.9712 47.9717 38.4946 47.4705 38.1521 46.8218C37.8096 46.1878 37.6309 45.4506 37.6309 44.625C37.6309 43.7994 37.8096 43.0622 38.1521 42.4283C38.4946 41.7943 38.9861 41.2783 39.5966 40.9244C40.2072 40.5706 40.922 40.3789 41.7262 40.3789C42.7389 40.3494 43.558 40.5853 44.2282 41.0571Z" fill="#D9D9D9"/>
<path d="M56.7213 48.7386H55.6342L51.2707 42.1631V48.7386H50.1836V40.4233H51.2707L55.6342 46.9989V40.4233H56.7213V48.7386Z" fill="#D9D9D9"/>
<path d="M72.3876 47.6766C72.194 48.0157 71.911 48.2959 71.5238 48.5023C71.1366 48.7087 70.6601 48.8266 70.0793 48.8266C69.5283 48.8266 69.0219 48.7234 68.5901 48.5318C68.1582 48.3254 67.8157 48.06 67.5476 47.7061C67.2944 47.3523 67.1455 46.9542 67.1008 46.5119H68.2624C68.2922 46.7478 68.3667 46.9837 68.5007 47.2049C68.6347 47.426 68.8432 47.6177 69.0964 47.7651C69.3495 47.9125 69.6623 47.9863 70.0346 47.9863C70.5111 47.9863 70.8834 47.8683 71.1366 47.6029C71.3898 47.3375 71.5238 47.0279 71.5238 46.6299C71.5238 46.2908 71.4345 46.0106 71.2557 45.8042C71.077 45.5978 70.8537 45.4209 70.6005 45.303C70.3473 45.185 69.9751 45.0523 69.5283 44.9049C68.9922 44.728 68.5751 44.5658 68.2475 44.4184C67.9199 44.2709 67.6518 44.035 67.4284 43.7254C67.205 43.4158 67.0859 43.0178 67.0859 42.5165C67.0859 42.0889 67.1901 41.7056 67.3986 41.3665C67.6071 41.0422 67.905 40.7768 68.3071 40.5999C68.6943 40.4229 69.1709 40.3345 69.6921 40.3345C70.5112 40.3345 71.1813 40.5261 71.6579 40.9242C72.1493 41.3223 72.4174 41.8235 72.5067 42.4428H71.3451C71.2855 42.1184 71.1068 41.8235 70.8387 41.5729C70.5558 41.3223 70.1835 41.1896 69.707 41.1896C69.2751 41.1896 68.9177 41.3075 68.6645 41.5287C68.3965 41.7498 68.2773 42.0742 68.2773 42.4723C68.2773 42.7966 68.3666 43.062 68.5304 43.2536C68.7091 43.4601 68.9176 43.6075 69.1708 43.7254C69.424 43.8434 69.7814 43.9613 70.2133 44.1088C70.7494 44.2857 71.1813 44.4479 71.5238 44.61C71.8514 44.7722 72.1344 45.0081 72.3578 45.3177C72.5811 45.6273 72.7003 46.0549 72.7003 46.5856C72.6705 46.969 72.5812 47.3375 72.3876 47.6766Z" fill="#D9D9D9"/>
<path d="M82.2617 40.4233V41.2932H79.8937V48.7386H78.7917V41.2932H76.4238V40.4233H82.2617Z" fill="#D9D9D9"/>
<path d="M87.3249 40.4233V45.4066C87.3249 46.2175 87.5036 46.8219 87.8759 47.22C88.2482 47.6033 88.7397 47.8097 89.3949 47.8097C90.0353 47.8097 90.5267 47.6181 90.8841 47.22C91.2415 46.8219 91.4202 46.2322 91.4202 45.4213V40.4381H92.5074V45.4213C92.5074 46.5566 92.2245 47.4117 91.6586 47.9719C91.0927 48.5469 90.3331 48.827 89.38 48.827C88.4418 48.827 87.6824 48.5469 87.1164 47.9719C86.5505 47.3969 86.2676 46.5566 86.2676 45.4213V40.4381H87.3249V40.4233Z" fill="#D9D9D9"/>
<path d="M103.722 46.7777C103.38 47.3969 102.874 47.8835 102.218 48.2226C101.548 48.5617 100.759 48.7386 99.8356 48.7386H97.1699V40.4233H99.8356C100.759 40.4233 101.563 40.5855 102.218 40.9246C102.874 41.2637 103.38 41.7355 103.722 42.3695C104.065 43.0034 104.229 43.7258 104.229 44.581C104.229 45.4213 104.065 46.1585 103.722 46.7777ZM102.263 46.9399C102.844 46.3796 103.127 45.5982 103.127 44.581C103.127 43.5637 102.844 42.7823 102.263 42.222C101.682 41.6618 100.848 41.3817 99.7463 41.3817H98.2421V47.7803H99.7463C100.833 47.7803 101.682 47.5001 102.263 46.9399Z" fill="#D9D9D9"/>
<path d="M109.769 40.4233V48.7386H108.682V40.4233H109.769Z" fill="#D9D9D9"/>
<path d="M120.431 40.8653C121.057 41.2339 121.548 41.7352 121.906 42.3839C122.263 43.0326 122.442 43.7698 122.442 44.5806C122.442 45.3915 122.263 46.1287 121.906 46.7774C121.548 47.4261 121.057 47.9274 120.431 48.296C119.806 48.6645 119.106 48.8415 118.331 48.8415C117.557 48.8415 116.842 48.6645 116.217 48.296C115.591 47.9274 115.085 47.4261 114.728 46.7774C114.37 46.1287 114.191 45.3915 114.191 44.5806C114.191 43.7698 114.37 43.0326 114.728 42.3839C115.085 41.7352 115.576 41.2339 116.217 40.8653C116.857 40.4967 117.557 40.3198 118.331 40.3198C119.106 40.3198 119.806 40.4967 120.431 40.8653ZM116.768 41.7204C116.306 41.9858 115.949 42.3544 115.696 42.8557C115.442 43.3422 115.308 43.9172 115.308 44.5806C115.308 45.2293 115.442 45.8043 115.696 46.3056C115.949 46.8069 116.306 47.1755 116.768 47.4408C117.229 47.7062 117.736 47.8389 118.316 47.8389C118.882 47.8389 119.404 47.7062 119.865 47.4408C120.327 47.1755 120.684 46.7921 120.938 46.3056C121.191 45.8191 121.325 45.2441 121.325 44.5954C121.325 43.9319 121.191 43.3569 120.938 42.8704C120.684 42.3839 120.327 42.0006 119.865 41.7352C119.404 41.4698 118.897 41.3371 118.316 41.3371C117.751 41.3224 117.229 41.4551 116.768 41.7204Z" fill="#D9D9D9"/>
</svg>
