<svg width="171" height="45" viewBox="0 0 171 45" fill="none" xmlns="http://www.w3.org/2000/svg">
<path d="M36.5725 44.5905H8.59368C3.99582 44.5905 0.269531 40.9014 0.269531 36.3496V8.65059C0.269531 4.0987 3.99582 0.409668 8.59368 0.409668H36.5725C41.1703 0.409668 44.8966 4.0987 44.8966 8.65059V36.3496C44.8966 40.9014 41.1703 44.5905 36.5725 44.5905Z" fill="#D9D9D9"/>
<path d="M30.6224 22.9066C31.4182 23.8945 31.8224 25.045 31.8224 26.3455C31.8224 28.2588 31.1782 29.7594 29.8898 30.8223C28.6014 31.8853 26.7572 32.4355 24.3572 32.4355H13.873V10.1138H24.1045C26.4035 10.1138 28.1719 10.614 29.4224 11.6019C30.6729 12.5898 31.3045 14.0029 31.3045 15.8286C31.3045 17.1792 30.9382 18.2922 30.2182 19.1925C29.4982 20.0929 28.5508 20.6681 27.3761 20.9433C28.753 21.2684 29.8266 21.9187 30.6224 22.9066ZM19.3172 19.2426H22.8919C24.7867 19.2426 25.734 18.4422 25.734 16.8416C25.734 15.2409 24.7614 14.4406 22.8288 14.4406H19.3172V19.2426ZM26.2393 25.5952C26.2393 24.7949 25.974 24.1696 25.4435 23.7194C24.913 23.2692 24.1551 23.0441 23.1825 23.0441H19.3298V28.0587H23.2203C25.2288 28.0462 26.2393 27.2334 26.2393 25.5952Z" fill="white"/>
<path d="M70.754 32.4355L65.8783 24.007H64.6404V32.4355H59.1836V10.1138H68.493C70.274 10.1138 71.7898 10.4139 73.0151 11.0267C74.253 11.6394 75.1751 12.4772 75.794 13.5402C76.4129 14.6031 76.7161 15.8161 76.7161 17.1917C76.7161 18.8174 76.2614 20.1929 75.3645 21.3309C74.4551 22.4689 73.154 23.2442 71.4235 23.6694L76.7793 32.448H70.754V32.4355ZM64.6404 20.318H68.013C69.0993 20.318 69.8951 20.0804 70.4004 19.6052C70.9056 19.13 71.1709 18.4297 71.1709 17.5043C71.1709 16.6165 70.9056 15.9287 70.3877 15.416C69.8698 14.9158 69.074 14.6532 68.013 14.6532H64.6404V20.318Z" fill="#D9D9D9"/>
<path d="M101.398 28.3711H92.9474L91.5453 32.4478H85.8105L94.0716 10.2886H100.349L108.61 32.4478H102.813L101.398 28.3711ZM99.9957 24.2569L97.1915 16.0535L94.3495 24.2569H99.9957Z" fill="#D9D9D9"/>
<path d="M138.711 32.4355H133.254L124.135 18.7298V32.4355H118.678V10.1138H124.135L133.254 23.9445V10.1138H138.711V32.4355Z" fill="#D9D9D9"/>
<path d="M169.306 27.0585C168.359 28.7467 166.995 30.0722 165.226 31.0226C163.445 31.973 161.361 32.4482 158.961 32.4482H150.447V10.1265H158.961C161.386 10.1265 163.483 10.5892 165.239 11.5145C167.007 12.4399 168.359 13.7405 169.306 15.4287C170.253 17.1169 170.721 19.0427 170.721 21.2436C170.721 23.4195 170.241 25.3578 169.306 27.0585ZM163.432 25.933C164.607 24.82 165.201 23.2444 165.201 21.2311C165.201 19.2052 164.607 17.6421 163.432 16.5291C162.258 15.4162 160.603 14.8534 158.468 14.8534H155.891V27.6087H158.468C160.603 27.6087 162.258 27.0585 163.432 25.933Z" fill="#D9D9D9"/>
</svg>
