<svg width="138" height="45" viewBox="0 0 138 45" fill="none" xmlns="http://www.w3.org/2000/svg">
<path d="M12.6958 0.621094V0.812758L11.8916 1.00442V9.49657L12.6958 9.68823V9.8799H8.88335V9.68823L9.68754 9.49657V2.2576L6.5304 10.0126H6.12828L2.03291 2.2576V9.29017L3.10515 9.68823V9.8799H0.558594V9.68823L1.63084 9.29017V1.00442L0.826643 0.812758V0.621094H2.49457C2.74773 0.621094 2.97112 0.65058 3.14983 0.709553C3.32854 0.768526 3.50727 0.842242 3.6413 0.945446C3.79022 1.04865 3.90936 1.1666 4.0136 1.29929C4.11785 1.43198 4.20721 1.59415 4.29656 1.75633L7.21543 7.28507L9.44926 1.75633C9.52372 1.56467 9.5982 1.40249 9.70245 1.2698C9.7918 1.13711 9.91091 1.01916 10.0449 0.915961C10.179 0.812758 10.3428 0.739039 10.5364 0.694809C10.73 0.650579 10.9683 0.621094 11.2661 0.621094H12.6958Z" fill="#D9D9D9"/>
<path d="M17.4604 3.08301C18.0114 3.08301 18.5177 3.15672 18.9496 3.3189C19.3815 3.48108 19.7538 3.71697 20.0665 4.01184C20.3793 4.32145 20.6026 4.69003 20.7665 5.11758C20.9303 5.54514 21.0047 6.04641 21.0047 6.59192C21.0047 7.13742 20.9303 7.63869 20.7665 8.06625C20.6026 8.4938 20.3644 8.86239 20.0665 9.172C19.7538 9.48161 19.3815 9.70276 18.9496 9.86493C18.5177 10.0271 18.0114 10.1008 17.4604 10.1008C16.9094 10.1008 16.403 10.0271 15.9712 9.86493C15.5393 9.70276 15.167 9.46686 14.8542 9.172C14.5415 8.86239 14.3181 8.4938 14.1543 8.06625C13.9905 7.63869 13.916 7.13742 13.916 6.59192C13.916 6.04641 13.9905 5.54514 14.1543 5.11758C14.3181 4.69003 14.5564 4.32145 14.8542 4.01184C15.167 3.70223 15.5393 3.48108 15.9712 3.3189C16.403 3.15672 16.8945 3.08301 17.4604 3.08301ZM17.4604 9.85019C17.6093 9.85019 17.7582 9.80596 17.922 9.70276C18.071 9.59955 18.205 9.43738 18.3241 9.18674C18.4432 8.9361 18.5475 8.61175 18.622 8.19894C18.6964 7.77138 18.7411 7.24062 18.7411 6.60666C18.7411 5.95795 18.6964 5.42719 18.622 5.01438C18.5475 4.60157 18.4432 4.26247 18.3241 4.02658C18.205 3.79069 18.071 3.61377 17.922 3.51057C17.7731 3.40736 17.6242 3.36313 17.4604 3.36313C17.3115 3.36313 17.1625 3.40736 16.9987 3.51057C16.8498 3.61377 16.7157 3.77594 16.5966 4.02658C16.4775 4.27722 16.3732 4.60157 16.2988 5.01438C16.2243 5.44194 16.1796 5.9727 16.1796 6.60666C16.1796 7.25537 16.2243 7.78613 16.2988 8.19894C16.3732 8.61175 16.4775 8.95085 16.5966 9.18674C16.7157 9.42263 16.8498 9.59955 16.9987 9.70276C17.1476 9.79122 17.2966 9.85019 17.4604 9.85019Z" fill="#D9D9D9"/>
<path d="M27.5133 0.621094C28.3175 0.621094 28.7196 1.01916 28.7196 1.8153V9.51131L29.5238 9.70298V9.89464H28.3175C27.9899 9.89464 27.7367 9.85041 27.5431 9.74721C27.3495 9.644 27.1857 9.52606 27.0814 9.40811C26.9474 9.26068 26.8432 9.08376 26.7836 8.90684C26.6645 9.14273 26.5155 9.33439 26.3368 9.51131C26.1879 9.65875 25.9794 9.79144 25.7262 9.92413C25.4731 10.0568 25.1752 10.1158 24.8327 10.1158C24.4455 10.1158 24.0881 10.0421 23.7604 9.89464C23.4179 9.74721 23.135 9.52606 22.8967 9.23119C22.6584 8.93632 22.45 8.56774 22.3159 8.14019C22.167 7.69789 22.1074 7.19661 22.1074 6.60688C22.1074 6.01715 22.1819 5.51588 22.3159 5.07358C22.4649 4.63128 22.6584 4.27744 22.9265 3.98257C23.1796 3.6877 23.4924 3.46655 23.8498 3.31912C24.2072 3.17169 24.6093 3.09797 25.0561 3.09797C25.2944 3.09797 25.5029 3.12746 25.6965 3.17169C25.8901 3.23066 26.0539 3.28963 26.1879 3.36335C26.3517 3.43707 26.4857 3.52553 26.6049 3.62873V1.04865L25.8007 0.856987V0.665325H27.5133V0.621094ZM26.5751 4.01206C26.4708 3.90885 26.3815 3.82039 26.2624 3.74668C26.1581 3.67296 26.0539 3.61399 25.9347 3.55501C25.8156 3.49604 25.6965 3.4813 25.5624 3.4813C25.3986 3.4813 25.2348 3.52553 25.0859 3.61399C24.9369 3.70245 24.8178 3.84988 24.6987 4.07103C24.5944 4.29218 24.5051 4.61653 24.4455 5.0146C24.3859 5.42741 24.3562 5.94343 24.3562 6.59214C24.3562 7.2261 24.3859 7.72737 24.4455 8.12544C24.5051 8.52351 24.5796 8.83312 24.6838 9.05427C24.7731 9.27542 24.8774 9.4376 25.0114 9.51131C25.1306 9.58503 25.2497 9.62926 25.3688 9.62926C25.5773 9.62926 25.756 9.57029 25.9049 9.46708C26.0538 9.36388 26.173 9.23119 26.2772 9.0985C26.3964 8.93632 26.5006 8.7594 26.59 8.56774V4.01206H26.5751Z" fill="#D9D9D9"/>
<path d="M34.0055 10.1165C32.8588 10.1165 31.9653 9.80684 31.3398 9.18762C30.6995 8.5684 30.3867 7.69855 30.3867 6.60754C30.3867 6.06204 30.4612 5.56077 30.625 5.13321C30.7888 4.70565 31.0122 4.33707 31.2952 4.02746C31.5781 3.71785 31.9206 3.4967 32.3376 3.33453C32.7397 3.17235 33.1864 3.09863 33.6779 3.09863C34.1842 3.09863 34.631 3.17235 35.0182 3.30504C35.4203 3.45247 35.7479 3.64414 36.0309 3.88003C36.3138 4.11592 36.5223 4.39605 36.6712 4.7204C36.8202 5.04475 36.8946 5.38385 36.8946 5.75243C36.8946 5.87038 36.8947 5.98832 36.8798 6.07678C36.8649 6.16524 36.85 6.2537 36.8351 6.32742C36.8053 6.41588 36.7904 6.4896 36.7606 6.54857C36.3734 6.62229 35.9564 6.696 35.5097 6.74023C35.1373 6.7992 34.7055 6.84343 34.214 6.87292C33.7226 6.90241 33.2163 6.9319 32.6801 6.9319C32.6801 7.4774 32.7248 7.93444 32.7993 8.30302C32.8737 8.67161 32.9929 8.96647 33.1269 9.17288C33.2758 9.39403 33.4396 9.54146 33.6332 9.62992C33.8268 9.71838 34.0502 9.76261 34.2736 9.76261C34.5417 9.76261 34.7948 9.71838 35.0331 9.61518C35.2714 9.51198 35.4799 9.39403 35.6437 9.23185C35.8224 9.06968 35.9564 8.87801 36.0607 8.67161C36.1649 8.4652 36.2096 8.25879 36.2096 8.03764H36.5372C36.5372 8.30302 36.4777 8.55366 36.3585 8.8043C36.2394 9.05493 36.0607 9.27608 35.8373 9.46775C35.6139 9.65941 35.3458 9.80684 35.0331 9.92479C34.7352 10.0575 34.3927 10.1165 34.0055 10.1165ZM32.6652 6.5928C32.9631 6.5928 33.2311 6.5928 33.4694 6.57806C33.7077 6.56331 33.9013 6.54857 34.0651 6.53383C34.2587 6.51908 34.4076 6.48959 34.5417 6.47485C34.5566 6.38639 34.5864 6.28319 34.6012 6.17999C34.6161 6.07678 34.631 5.97358 34.6459 5.85563C34.6608 5.73768 34.6608 5.605 34.6608 5.47231C34.6608 5.07424 34.631 4.73514 34.5714 4.46976C34.5119 4.20438 34.4374 3.98323 34.3332 3.80631C34.2438 3.64413 34.1396 3.51145 34.0055 3.45247C33.8715 3.3935 33.7673 3.34927 33.6481 3.34927C33.529 3.34927 33.4099 3.3935 33.2907 3.48196C33.1716 3.57042 33.0673 3.7326 32.9631 3.95375C32.8737 4.18964 32.7844 4.51399 32.7248 4.94155C32.6652 5.3691 32.6652 5.9146 32.6652 6.5928Z" fill="#D9D9D9"/>
<path d="M42.524 3.54017C42.256 3.54017 42.0177 3.59915 41.8092 3.70235C41.6008 3.80555 41.422 3.93824 41.2731 4.07093C41.1093 4.23311 40.9752 4.41003 40.8412 4.60169V9.51122L41.6454 9.70288V9.89454H37.8926V9.70288L38.6968 9.51122V3.67286L37.8926 3.4812V3.28954H39.0988C39.4116 3.28954 39.6647 3.34851 39.8732 3.45171C40.0668 3.55492 40.2307 3.67286 40.3498 3.79081C40.4838 3.93824 40.5881 4.10042 40.6477 4.27734C40.7817 4.08568 40.9455 3.90876 41.1391 3.74658C41.3029 3.61389 41.5114 3.49594 41.7646 3.378C42.0177 3.26005 42.3007 3.21582 42.6432 3.21582C43.1198 3.21582 43.4772 3.33377 43.7154 3.54017C43.9537 3.76132 44.0579 4.07093 44.0579 4.469C44.0579 4.76387 43.9686 5.01451 43.7899 5.19143C43.6112 5.36834 43.358 5.45681 43.0602 5.45681C42.9857 5.45681 42.9261 5.45681 42.8517 5.45681C42.7772 5.45681 42.7326 5.44206 42.6879 5.44206C42.6283 5.42732 42.5687 5.42732 42.524 5.39783V3.54017Z" fill="#D9D9D9"/>
<path d="M49.8219 5.26511C49.8219 4.97025 49.7921 4.70487 49.7325 4.48372C49.6729 4.26257 49.5985 4.08565 49.4943 3.95296C49.4049 3.80553 49.3007 3.70232 49.1666 3.64335C49.0475 3.58437 48.9283 3.54015 48.8092 3.54015C48.6007 3.54015 48.422 3.59912 48.2731 3.70232C48.1242 3.80553 47.9901 3.93822 47.9008 4.07091C47.7817 4.23308 47.6923 4.41 47.6029 4.60167V9.51119L48.4071 9.70285V9.89452H44.6543V9.70285L45.4584 9.51119V3.67284L44.6543 3.48117V3.28951H45.8606C46.1733 3.28951 46.4265 3.34848 46.6349 3.45169C46.8285 3.55489 46.9924 3.67284 47.1115 3.79078C47.2455 3.93821 47.3498 4.10039 47.4093 4.27731C47.5285 4.05616 47.6774 3.84975 47.8561 3.67284C48.005 3.5254 48.2135 3.39271 48.4518 3.26002C48.6901 3.12733 49.0028 3.06836 49.3602 3.06836C49.7474 3.06836 50.1048 3.12733 50.4176 3.26002C50.7452 3.37797 51.0133 3.55489 51.2366 3.74655C51.46 3.95296 51.6388 4.17411 51.7728 4.43949C51.9068 4.70487 51.9663 4.97025 51.9663 5.25037V9.49645L52.7705 9.68811V9.87977H51.0282C50.224 9.87977 49.8219 9.4817 49.8219 8.68556V5.26511Z" fill="#D9D9D9"/>
<path d="M1.97266 19.2125V18.667H12.3227V19.2125L10.1485 19.758V30.8892H17.952V19.758L15.7777 19.2125V18.667H26.1279V19.2125L23.9536 19.758V42.7576L26.1279 43.3031V43.8486H15.7777V43.2883L17.952 42.7428V31.7885H10.1485V42.7428L12.3227 43.2883V43.8338H1.97266V43.2883L4.14691 42.7428V19.7433L1.97266 19.2125Z" fill="#D9D9D9"/>
<path d="M38.9954 25.3164C40.4995 25.3164 41.8398 25.5376 43.0312 25.9651C44.2225 26.3927 45.2203 27.0266 46.0543 27.8523C46.8882 28.6779 47.5286 29.6804 47.9605 30.8599C48.3924 32.0394 48.6157 33.3663 48.6157 34.8553C48.6157 36.3444 48.3924 37.6713 47.9605 38.8508C47.5286 40.0302 46.8882 41.018 46.0543 41.8437C45.2203 42.6693 44.2076 43.3033 43.0312 43.7308C41.8398 44.1584 40.4995 44.3795 38.9954 44.3795C37.4913 44.3795 36.151 44.1584 34.9596 43.7308C33.7682 43.3033 32.7704 42.6693 31.9365 41.8437C31.1025 41.018 30.4621 40.0155 30.0303 38.8508C29.5984 37.6713 29.375 36.3444 29.375 34.8553C29.375 33.3663 29.5984 32.0394 30.0303 30.8599C30.4621 29.6804 31.1025 28.6926 31.9365 27.8523C32.7704 27.0119 33.7831 26.3927 34.9596 25.9651C36.151 25.5376 37.4913 25.3164 38.9954 25.3164ZM38.9954 43.6423C39.4124 43.6423 39.8145 43.5097 40.2315 43.2443C40.6484 42.9789 41.0058 42.5219 41.3335 41.8584C41.6611 41.195 41.9292 40.2956 42.1377 39.1604C42.3462 38.0251 42.4504 36.5803 42.4504 34.8258C42.4504 33.0714 42.3462 31.6265 42.1377 30.4913C41.9292 29.3561 41.6611 28.4567 41.3335 27.7933C41.0058 27.1298 40.6335 26.6728 40.2315 26.4074C39.8294 26.142 39.4124 26.0093 38.9954 26.0093C38.5784 26.0093 38.1763 26.142 37.7593 26.4074C37.3424 26.6728 36.9849 27.1298 36.6573 27.7933C36.3297 28.4567 36.0616 29.3561 35.8531 30.4913C35.6446 31.6265 35.5404 33.0714 35.5404 34.8258C35.5404 36.5803 35.6446 38.0251 35.8531 39.1604C36.0616 40.2956 36.3297 41.195 36.6573 41.8584C36.9849 42.5219 37.3572 42.9789 37.7593 43.2443C38.1763 43.5097 38.5784 43.6423 38.9954 43.6423Z" fill="#D9D9D9"/>
<path d="M75.8249 31.2434C75.8249 30.3883 75.7505 29.6511 75.6015 29.0761C75.4526 28.5012 75.2739 28.0146 75.0356 27.646C74.7974 27.2775 74.5442 27.0121 74.2761 26.8352C73.9932 26.673 73.7251 26.5845 73.4571 26.5845C72.9954 26.5845 72.5933 26.732 72.2359 27.0268C71.8785 27.3217 71.5806 27.6608 71.3126 28.0146C71.0296 28.4422 70.7615 28.9287 70.553 29.4447V42.7432L72.7422 43.2887V43.8342H62.5857V43.2887L64.76 42.7432V31.2434C64.76 30.3883 64.6855 29.6511 64.5366 29.0761C64.3876 28.5012 64.2089 28.0146 63.9707 27.646C63.7324 27.2775 63.4792 27.0121 63.2112 26.8352C62.9282 26.673 62.6601 26.5845 62.3921 26.5845C61.9304 26.5845 61.5284 26.732 61.171 27.0268C60.8135 27.3217 60.5157 27.6608 60.2476 28.0146C59.9498 28.4422 59.6966 28.9287 59.4881 29.4447V42.7432L61.6624 43.2887V43.8342H51.5059V43.2887L53.6802 42.7432V26.9384L51.5059 26.3929V25.8474H54.7673C55.6161 25.8474 56.316 25.9948 56.8522 26.2749C57.4032 26.555 57.8202 26.8794 58.1478 27.2037C58.5052 27.6166 58.7733 28.0589 58.952 28.5306C59.2647 27.9262 59.6519 27.3954 60.1136 26.9089C60.5306 26.4961 61.0369 26.1275 61.6326 25.7884C62.2432 25.4493 62.9729 25.2871 63.8515 25.2871C65.2961 25.2871 66.5619 25.6115 67.6044 26.2454C68.6617 26.8794 69.4659 27.705 70.0169 28.7076C70.3297 28.0883 70.7169 27.5281 71.1785 27.0121C71.5955 26.5845 72.1018 26.1865 72.6975 25.8326C73.3081 25.4788 74.0378 25.2871 74.9165 25.2871C75.9142 25.2871 76.8078 25.4493 77.6418 25.7589C78.4608 26.0685 79.1757 26.4961 79.7713 27.0416C80.367 27.5871 80.8287 28.2063 81.1563 28.9287C81.4839 29.6511 81.6478 30.4178 81.6478 31.2287V42.7285L83.822 43.274V43.8195H79.1012C76.9269 43.8195 75.8398 42.7432 75.8398 40.5907V31.2434H75.8249Z" fill="#D9D9D9"/>
<path d="M95.7952 44.3649C92.6976 44.3649 90.2851 43.5245 88.5725 41.829C86.8599 40.1335 85.9961 37.8188 85.9961 34.8407C85.9961 33.3516 86.2195 32.0247 86.6514 30.8452C87.0832 29.6658 87.6938 28.678 88.4682 27.8376C89.2426 27.012 90.1808 26.378 91.2829 25.9505C92.3849 25.5229 93.5911 25.3018 94.8868 25.3018C96.242 25.3018 97.4631 25.4934 98.5354 25.8767C99.6076 26.2601 100.531 26.7761 101.276 27.4248C102.02 28.0735 102.601 28.8402 103.003 29.71C103.405 30.5799 103.599 31.5087 103.599 32.4965C103.599 32.8356 103.584 33.1305 103.539 33.3811C103.494 33.6317 103.465 33.8529 103.405 34.0445C103.331 34.2804 103.271 34.4868 103.226 34.649C102.154 34.8702 101.037 35.0471 99.8459 35.1945C98.8332 35.342 97.6567 35.4599 96.3313 35.5778C95.0059 35.681 93.6061 35.74 92.1615 35.74C92.1615 37.2291 92.2658 38.4675 92.4891 39.4553C92.7125 40.4431 93.0103 41.2393 93.3975 41.829C93.7847 42.4187 94.2464 42.8316 94.7825 43.0822C95.3186 43.3328 95.8994 43.4655 96.5249 43.4655C97.2546 43.4655 97.9397 43.3328 98.5801 43.0675C99.2204 42.8021 99.7714 42.4482 100.248 42.0059C100.725 41.5636 101.097 41.0624 101.38 40.5021C101.663 39.9419 101.797 39.3669 101.797 38.7919H102.705C102.705 39.5143 102.541 40.2072 102.214 40.8707C101.886 41.5489 101.424 42.1386 100.814 42.6546C100.203 43.1707 99.4885 43.5835 98.6396 43.8931C97.7759 44.2027 96.8228 44.3649 95.7952 44.3649ZM92.1615 34.8407C92.9806 34.8407 93.7103 34.8259 94.3358 34.7817C94.9612 34.7375 95.4974 34.708 95.9292 34.6638C96.4356 34.6195 96.8675 34.5606 97.2398 34.4868C97.2844 34.2509 97.344 33.9856 97.4185 33.6907C97.4631 33.4253 97.5078 33.1305 97.5376 32.8061C97.5674 32.4818 97.5972 32.1427 97.5972 31.7888C97.5972 30.7126 97.5078 29.8132 97.344 29.076C97.1802 28.3389 96.9568 27.7491 96.7036 27.2921C96.4504 26.8351 96.1526 26.5107 95.8399 26.319C95.5123 26.1274 95.1846 26.0242 94.8719 26.0242C94.5591 26.0242 94.2315 26.1421 93.9039 26.3633C93.5762 26.5992 93.2933 27.0267 93.0401 27.6607C92.787 28.2946 92.5785 29.194 92.3998 30.344C92.2509 31.4939 92.1615 32.9978 92.1615 34.8407Z" fill="#D9D9D9"/>
<path d="M121.424 43.4652V28.884L108.408 18.6816V43.4652H121.424Z" fill="#D9D9D9"/>
<path d="M137.522 43.4652V28.884L124.715 18.6816V43.4652H137.522Z" fill="#D9D9D9"/>
</svg>
