<svg width="108" height="107" viewBox="0 0 108 107" fill="none" xmlns="http://www.w3.org/2000/svg">
<g style="mix-blend-mode:multiply">
<path d="M53.8968 105.603C82.963 105.603 106.526 82.276 106.526 53.5003C106.526 24.7247 82.963 1.39746 53.8968 1.39746C24.8305 1.39746 1.26758 24.7247 1.26758 53.5003C1.26758 82.276 24.8305 105.603 53.8968 105.603Z" fill="white"/>
<path d="M53.8972 106.34C24.4702 106.34 0.523438 82.633 0.523438 53.5002C0.523438 24.3674 24.4702 0.660156 53.8972 0.660156C83.3243 0.660156 107.271 24.3674 107.271 53.5002C107.271 82.633 83.3243 106.34 53.8972 106.34ZM53.8972 2.13449C25.2892 2.13449 2.01266 25.1783 2.01266 53.5002C2.01266 81.8221 25.2892 104.866 53.8972 104.866C82.5052 104.866 105.782 81.8221 105.782 53.5002C105.782 25.1783 82.5052 2.13449 53.8972 2.13449Z" fill="#D9D9D9"/>
<path d="M61.4022 6.68991C61.7596 6.7194 62.0723 6.73414 62.3255 6.73414L62.2957 6.97003C61.8787 7.02901 61.5213 7.33862 61.2384 7.92835L57.694 14.9462L57.5898 14.9314L57.5004 14.9167L55.2517 7.08798C55.1028 6.57196 54.8496 6.29184 54.4922 6.24761L54.522 6.01172C54.8496 6.07069 55.2815 6.11492 55.8176 6.1739C56.5175 6.23287 57.0388 6.2771 57.3813 6.2771L57.3515 6.51299C57.0388 6.49825 56.8154 6.51299 56.6813 6.55722C56.5473 6.60145 56.4729 6.7194 56.458 6.86683C56.4431 6.99952 56.4729 7.19118 56.5473 7.44182L58.2004 13.4276L60.6576 8.53283C60.8661 8.13476 60.9703 7.8104 61.0001 7.57451C61.0299 7.32387 60.9554 7.13221 60.7916 6.99952C60.6278 6.86683 60.3597 6.79311 60.0023 6.74888L60.0321 6.51299C60.464 6.58671 60.9256 6.64568 61.4022 6.68991Z" fill="#D9D9D9"/>
<path d="M71.4108 9.80056C71.2618 9.80056 71.1427 9.85953 71.0534 9.97748C70.964 10.0954 70.8598 10.2871 70.7555 10.5672L68.6259 16.1697C68.5217 16.4498 68.4621 16.6709 68.4621 16.8184C68.4621 16.9658 68.5068 17.0838 68.611 17.1722C68.7153 17.2607 68.9089 17.3639 69.1769 17.4818L69.0876 17.703C68.7451 17.5555 68.2685 17.3639 67.6579 17.128C67.0027 16.8774 66.5112 16.7152 66.1836 16.612L66.2729 16.3908C66.5559 16.4793 66.7644 16.5235 66.8984 16.5235C67.0325 16.5235 67.1665 16.4645 67.2558 16.3466C67.3452 16.2286 67.4494 16.037 67.5537 15.7569L69.6833 10.1544C69.7875 9.87428 69.8471 9.65313 69.8471 9.50569C69.8471 9.35826 69.8024 9.24031 69.6982 9.15185C69.5939 9.06339 69.4003 8.96019 69.1323 8.84224L69.2216 8.62109C69.5343 8.75378 70.0109 8.94545 70.6662 9.19608C71.2767 9.43198 71.7682 9.59415 72.1256 9.69736L72.0362 9.91851C71.7682 9.83005 71.5597 9.78582 71.4108 9.80056Z" fill="#D9D9D9"/>
<path d="M84.6633 17.5998C84.5144 17.5703 84.3655 17.6145 84.2315 17.703C84.0974 17.7914 83.9336 17.9683 83.7549 18.219L79.4362 24.0131L79.2128 23.8509L79.7936 14.5331L75.9663 19.6638C75.7876 19.9145 75.6684 20.1209 75.6088 20.283C75.5493 20.4452 75.5791 20.5926 75.6535 20.7401C75.728 20.8875 75.9067 21.0497 76.1599 21.2561L76.0109 21.4478C75.7876 21.2561 75.4599 21.0055 75.0281 20.6811C74.6409 20.401 74.3281 20.1798 74.0898 20.0471L74.2388 19.8555C74.477 20.0177 74.6706 20.1061 74.8196 20.1209C74.9685 20.1503 75.1174 20.1061 75.2514 20.0177C75.3855 19.9145 75.5493 19.7523 75.728 19.5016L79.2426 14.7838C79.4213 14.5331 79.5404 14.3415 79.5851 14.2088C79.6298 14.0761 79.6149 13.9434 79.5404 13.8255C79.4659 13.7075 79.317 13.5601 79.0787 13.3684L79.2277 13.1768C79.4213 13.3537 79.7191 13.5896 80.1212 13.8697C80.419 14.0908 80.6722 14.2678 80.9105 14.4005L80.4339 22.2144L83.5315 18.0568C83.7102 17.8062 83.8443 17.5998 83.8889 17.4376C83.9336 17.2754 83.9187 17.128 83.8443 16.9805C83.7698 16.8331 83.5911 16.6562 83.3379 16.4645L83.4868 16.2729C83.7102 16.4645 84.0379 16.7152 84.4697 17.0395C84.8569 17.3196 85.1697 17.5408 85.4079 17.6735L85.259 17.8651C85.0059 17.7177 84.8123 17.6145 84.6633 17.5998Z" fill="#D9D9D9"/>
<path d="M89.6537 24.2494C90.0409 23.9693 90.443 23.6597 90.8749 23.2764C91.2472 23.8366 91.9024 24.7654 92.8406 26.0776C93.7789 27.375 94.449 28.2891 94.8511 28.8199C94.3448 29.1147 93.9129 29.3801 93.5257 29.6455C93.1981 29.8814 92.93 30.0878 92.7364 30.25L92.5726 30.0288C93.0491 29.616 93.3768 29.2769 93.5704 29.0263C93.764 28.7756 93.8384 28.5102 93.8235 28.2301C93.8086 27.95 93.6299 27.6109 93.347 27.1981L92.9598 26.6673L87.3156 30.648C87.0476 30.8397 86.854 31.0166 86.7646 31.1493C86.6752 31.282 86.6455 31.4442 86.705 31.6211C86.7497 31.7833 86.8837 32.0192 87.0773 32.314L86.8837 32.4615C86.6604 32.1076 86.3178 31.6063 85.8711 31.0019C85.3945 30.3384 85.0371 29.8666 84.7988 29.5718L84.9924 29.4243C85.2158 29.7045 85.3945 29.8961 85.5434 29.9993C85.6924 30.1025 85.8413 30.132 86.0051 30.0878C86.1689 30.0435 86.3923 29.9256 86.6604 29.7339L92.3045 25.7532L91.9173 25.2225C91.6195 24.8097 91.3514 24.559 91.0982 24.4411C90.8451 24.3231 90.5621 24.3084 90.2643 24.4116C89.9664 24.5148 89.5346 24.7065 88.9835 25.0161L88.8197 24.7949C89.0431 24.677 89.3112 24.5001 89.6537 24.2494Z" fill="#D9D9D9"/>
<path d="M92.5121 44.7134L92.2739 44.7871C92.1845 44.4627 92.0654 44.0499 91.8867 43.5486C91.6633 42.8999 91.4846 42.4134 91.3506 42.0891L91.5888 42.0153C91.6931 42.2955 91.8122 42.5019 91.9016 42.6051C92.0058 42.7083 92.1398 42.7378 92.2888 42.6788C92.4228 42.6346 92.5866 42.5314 92.7802 42.3692L94.4332 41.0275L93.495 38.2705L92.1101 38.2116C91.6633 38.1821 91.3208 38.2116 91.0825 38.3C90.8442 38.3885 90.6953 38.5212 90.6357 38.7128C90.591 38.9045 90.6208 39.1846 90.7251 39.5237L90.4868 39.5974C90.3677 39.1551 90.2187 38.7128 90.0698 38.2705C89.9507 37.9314 89.8464 37.6513 89.7422 37.4302L89.9805 37.3564C90.189 37.7103 90.6357 37.9019 91.291 37.9167L99.2136 38.2705L99.2732 38.4475L92.9589 43.6518C92.5717 44.0204 92.4228 44.3595 92.5121 44.7134ZM97.6797 38.4475L93.778 38.2853L94.6566 40.8801L97.6797 38.4475Z" fill="#D9D9D9"/>
<path d="M93.5981 55.9913C93.747 55.9323 93.8215 55.8586 93.8215 55.7554C93.8215 55.6964 93.8066 55.6522 93.7768 55.608C93.747 55.5637 93.6874 55.4753 93.5981 55.3573C93.3747 55.0772 93.2109 54.7823 93.0917 54.4875C92.9726 54.1926 92.913 53.8535 92.913 53.4849C92.8981 52.6593 93.062 51.9516 93.3896 51.3471C93.7321 50.7427 94.2087 50.2856 94.8639 49.9613C95.5043 49.6369 96.2787 49.4747 97.1871 49.46C98.1253 49.4452 98.9444 49.5927 99.6443 49.917C100.344 50.2414 100.895 50.6837 101.282 51.2734C101.67 51.8632 101.878 52.5266 101.878 53.2638C101.878 53.5881 101.848 53.883 101.789 54.1336C101.729 54.3843 101.64 54.6054 101.536 54.7971C101.431 54.9887 101.297 55.2099 101.119 55.4458C101.044 55.549 101 55.6374 101 55.6964C101 55.8438 101.253 55.947 101.744 55.9913V56.2714C101.223 56.2419 100.285 56.2419 98.9444 56.2714V55.9913C99.3763 55.9176 99.7337 55.8291 100.017 55.7406C100.3 55.6522 100.538 55.5195 100.746 55.3573C101.029 55.1214 101.268 54.8118 101.431 54.4285C101.595 54.0452 101.67 53.6618 101.67 53.249C101.655 52.7183 101.476 52.2612 101.119 51.8632C100.761 51.4651 100.255 51.1702 99.6145 50.9491C98.9593 50.7427 98.2147 50.6395 97.3509 50.6542C96.368 50.6689 95.5788 50.7869 94.9533 51.008C94.3278 51.2292 93.881 51.5535 93.5832 51.9811C93.2853 52.4087 93.1513 52.9542 93.1662 53.6176C93.1811 54.1041 93.3151 54.5169 93.5683 54.8708C93.6725 55.0182 93.7619 55.1067 93.8661 55.1509C93.9555 55.1951 94.0895 55.2099 94.2533 55.2099L95.4298 55.1951C95.7723 55.1951 96.0106 55.1509 96.1744 55.0919C96.3234 55.033 96.4425 54.915 96.4872 54.7381C96.5467 54.5759 96.5765 54.3105 96.5765 53.9567H96.8148C96.7999 54.3548 96.785 54.915 96.7999 55.6669C96.8148 56.2272 96.8297 56.6547 96.8595 56.9201H96.6212C96.6063 56.7284 96.5616 56.5958 96.517 56.522C96.4723 56.4483 96.368 56.3893 96.234 56.3599C96.1 56.3304 95.8766 56.3156 95.5639 56.3304L93.1513 56.3746V56.1387C93.2853 56.0797 93.4492 56.0503 93.5981 55.9913Z" fill="#D9D9D9"/>
<path d="M91.8276 68.538C91.3957 68.4053 90.8894 68.2726 90.3086 68.1546C90.5022 67.6386 90.7851 66.7688 91.1872 65.5303C91.6638 64.056 92.0063 62.9355 92.2148 62.1836L92.4531 62.2573C92.3786 62.5374 92.3488 62.7438 92.3488 62.8913C92.3637 63.0387 92.4233 63.1419 92.5424 63.2304C92.6616 63.3188 92.8701 63.4073 93.153 63.4957L98.9163 65.2944C99.2142 65.3829 99.4226 65.4271 99.5716 65.4271C99.7205 65.4271 99.8396 65.3682 99.929 65.2502C100.018 65.1323 100.108 64.9406 100.212 64.6752L100.45 64.7489C100.182 65.5008 99.8247 66.6066 99.3482 68.0809C98.9908 69.2014 98.7376 70.0123 98.6185 70.4988C98.127 70.2924 97.6802 70.1155 97.2633 69.9976C96.9654 69.9091 96.7123 69.8354 96.5335 69.8059L96.6229 69.5405C97.1441 69.6437 97.5462 69.6879 97.8143 69.6879C98.0823 69.6879 98.3057 69.5995 98.4844 69.4226C98.6631 69.2604 98.8121 68.9655 98.9461 68.5675L99.2439 67.6091C99.3333 67.329 99.378 67.1226 99.3631 66.9899C99.3482 66.8572 99.3035 66.7393 99.1844 66.6508C99.0652 66.5624 98.8716 66.4739 98.5738 66.3854L95.8336 65.5303L95.5953 66.297C95.4762 66.6803 95.506 66.9752 95.6996 67.1816C95.8932 67.388 96.1017 67.5354 96.3399 67.6386C96.5782 67.7418 96.7271 67.8155 96.7867 67.845L96.6974 68.1104C96.3251 67.963 95.9676 67.8303 95.6102 67.7271L95.0592 67.5649C94.672 67.447 94.1061 67.2848 93.3913 67.1226L93.4806 66.8572C93.5402 66.872 93.7338 66.9015 94.0614 66.9752C94.3891 67.0341 94.672 67.0047 94.8954 66.8867C95.1188 66.7688 95.2677 66.5476 95.372 66.238L95.6102 65.4714L92.8105 64.6015C92.5126 64.513 92.3042 64.4688 92.1552 64.4688C92.0063 64.4688 91.8872 64.5278 91.8127 64.6457C91.7234 64.7637 91.634 64.9553 91.5446 65.2355L91.2766 66.0758C91.1277 66.5624 91.0681 66.9457 91.1277 67.2258C91.1723 67.5207 91.3213 67.7566 91.5744 67.963C91.8276 68.1546 92.2148 68.3758 92.736 68.6117L92.6467 68.8771C92.468 68.7444 92.185 68.6559 91.8276 68.538Z" fill="#D9D9D9"/>
<path d="M87.5831 86.6279C87.6427 86.4952 87.6278 86.3625 87.5682 86.2298C87.5086 86.0971 87.3597 85.935 87.1363 85.7138L82.758 81.5709C82.5346 81.3645 82.3559 81.2318 82.2219 81.1729C82.0879 81.1139 81.9538 81.1139 81.8198 81.1729C81.6858 81.2318 81.522 81.3645 81.3135 81.5709L81.1348 81.4088C81.4177 81.1581 81.7751 80.7895 82.2368 80.3325C82.7133 79.8312 83.0708 79.4479 83.2941 79.1973L83.4728 79.3594C83.2792 79.5806 83.1601 79.7575 83.1005 79.8755C83.041 80.0081 83.0559 80.1408 83.1154 80.2735C83.175 80.4062 83.3239 80.5684 83.5473 80.7895L87.9256 84.9324C88.149 85.1388 88.3277 85.2715 88.4617 85.3305C88.5958 85.3895 88.7298 85.3895 88.8638 85.3305C88.9979 85.2715 89.1617 85.1388 89.3702 84.9324L89.5489 85.0946C89.2957 85.3157 88.9234 85.6843 88.4469 86.1856C87.9852 86.6574 87.6427 87.0407 87.4044 87.3208L87.2257 87.1587C87.4044 86.9375 87.5235 86.7606 87.5831 86.6279Z" fill="#D9D9D9"/>
<path d="M75.1764 95.6218C75.2658 95.4892 75.2807 95.3565 75.2509 95.1943C75.2211 95.0321 75.1169 94.8257 74.953 94.5456L71.2598 88.3386L71.498 88.1912L79.927 92.3636L76.6657 86.879C76.5018 86.6137 76.3678 86.422 76.2338 86.3188C76.0997 86.2156 75.9508 86.1714 75.787 86.1861C75.6232 86.2009 75.3998 86.2893 75.1169 86.4367L74.9828 86.2303C75.2509 86.1124 75.6083 85.906 76.07 85.6406C76.4869 85.39 76.7997 85.1983 77.0231 85.0361L77.1422 85.2425C76.9039 85.39 76.7401 85.5374 76.6657 85.6701C76.5763 85.8028 76.5614 85.9355 76.5912 86.0977C76.621 86.2598 76.7252 86.4662 76.889 86.7464L79.8973 91.8033C80.0462 92.0687 80.1802 92.2456 80.2994 92.3341C80.4185 92.4225 80.5376 92.4668 80.6866 92.4373C80.8206 92.4078 81.0291 92.3341 81.2822 92.2014L81.4014 92.4078C81.1631 92.5257 80.8355 92.7027 80.4036 92.9533C80.0909 93.1302 79.8228 93.3071 79.5994 93.4546L72.5256 89.9604L75.1764 94.4129C75.3402 94.6783 75.4743 94.8699 75.6083 94.9731C75.7274 95.0763 75.8764 95.1206 76.0551 95.1058C76.2338 95.0911 76.4572 95.0026 76.7401 94.8552L76.8592 95.0616C76.5912 95.1795 76.2338 95.3859 75.7721 95.6513C75.3551 95.902 75.0424 96.0936 74.819 96.2558L74.6999 96.0494C74.9233 95.8872 75.0871 95.7398 75.1764 95.6218Z" fill="#D9D9D9"/>
<path d="M66.9862 97.5526C67.0904 98.0096 67.2244 98.5109 67.4032 99.0417C66.733 99.1596 65.6161 99.3955 64.0375 99.7199C62.4589 100.059 61.3569 100.31 60.7016 100.472C60.6272 99.8968 60.5527 99.3955 60.4485 98.9385C60.3591 98.5404 60.2847 98.216 60.1953 97.9801L60.4634 97.9212C60.657 98.5256 60.8357 98.9532 60.9995 99.2333C61.1633 99.5134 61.3718 99.6904 61.6399 99.7788C61.9079 99.8673 62.2951 99.8525 62.7866 99.7493L63.4269 99.6166L61.9675 92.9084C61.893 92.5841 61.8186 92.3482 61.7143 92.2155C61.6101 92.0828 61.4909 91.9943 61.3122 91.9796C61.1335 91.9501 60.8655 91.9796 60.508 92.0386L60.4634 91.8027C60.8804 91.7437 61.476 91.6258 62.2207 91.4636C63.0099 91.2867 63.6056 91.154 63.9779 91.0508L64.0226 91.2867C63.6652 91.3751 63.4269 91.4636 63.278 91.5521C63.1291 91.6405 63.0397 91.7732 63.0099 91.9354C62.9802 92.0976 62.9951 92.3482 63.0695 92.6725L64.529 99.3808L65.1693 99.2481C65.6608 99.1449 66.0182 98.9974 66.2267 98.8058C66.4352 98.6141 66.5543 98.3635 66.5841 98.0539C66.6139 97.7442 66.599 97.2725 66.5245 96.6532L66.7926 96.5943C66.8373 96.8302 66.8968 97.1545 66.9862 97.5526Z" fill="#D9D9D9"/>
<path d="M47.2248 93.4104C47.2695 92.9533 47.2844 92.4373 47.2844 91.8623C47.8354 91.936 48.7587 92.0245 50.0693 92.1424C51.6181 92.2751 52.7945 92.3783 53.5987 92.4226L53.5838 92.6584C53.286 92.6437 53.0775 92.6584 52.9435 92.7027C52.8094 92.7469 52.7052 92.8206 52.6456 92.9533C52.5861 93.086 52.5414 93.3072 52.5116 93.602L51.9755 99.5731C51.9457 99.8679 51.9606 100.089 51.9904 100.237C52.0201 100.384 52.1095 100.487 52.2435 100.546C52.3776 100.605 52.5861 100.664 52.869 100.694L52.8541 100.929C52.0648 100.841 50.8883 100.723 49.3395 100.59C48.1482 100.487 47.2993 100.428 46.793 100.399C46.8972 99.8827 46.9717 99.4109 47.0015 98.9833C47.0312 98.6737 47.0461 98.4231 47.0312 98.2314L47.3142 98.2609C47.3291 98.7917 47.3589 99.175 47.4333 99.4404C47.4929 99.7057 47.6269 99.8974 47.8354 100.03C48.029 100.163 48.3567 100.251 48.7736 100.281L49.7863 100.369C50.0842 100.399 50.2926 100.384 50.4267 100.354C50.5607 100.325 50.665 100.237 50.7245 100.104C50.7841 99.9711 50.8288 99.75 50.8585 99.4551L51.1117 96.6244L50.3075 96.5507C49.9054 96.5212 49.6225 96.6096 49.4587 96.8455C49.3098 97.0814 49.1906 97.3173 49.1459 97.568C49.0864 97.8186 49.0566 97.9808 49.0417 98.0545L48.7587 98.025C48.8183 97.6269 48.863 97.2584 48.9077 96.8898L48.9523 96.3148C48.9821 95.902 49.0119 95.3417 49.0417 94.6046L49.3247 94.634C49.3247 94.693 49.3395 94.8847 49.3395 95.2238C49.3544 95.5629 49.4289 95.8283 49.6076 96.0052C49.7714 96.1968 50.0246 96.3 50.3522 96.3295L51.1564 96.4032L51.4096 93.5136C51.4393 93.2187 51.4245 92.9975 51.3947 92.8501C51.3649 92.7174 51.2755 92.6142 51.1415 92.5552C51.0075 92.4963 50.799 92.452 50.516 92.4226L49.6225 92.3488C49.1162 92.3046 48.729 92.3341 48.446 92.452C48.1779 92.5552 47.9695 92.7616 47.8205 93.0418C47.6716 93.3219 47.5525 93.7494 47.4333 94.3097L47.1504 94.2802C47.1504 94.0591 47.1802 93.7642 47.2248 93.4104Z" fill="#D9D9D9"/>
<path d="M35.5039 87.9407C35.7273 87.8964 35.9805 87.9406 36.2486 88.0586C36.5613 88.1913 36.7698 88.3829 36.8889 88.6336C37.0081 88.899 37.0229 89.2676 36.9485 89.7541L36.7251 90.963C36.6506 91.3906 36.606 91.7149 36.5911 91.9656C36.5762 92.2015 36.6357 92.4226 36.74 92.6143C36.8442 92.8059 37.0378 92.9534 37.3208 93.0713L38.393 93.5136L39.4802 90.9483C39.5993 90.6682 39.6589 90.4618 39.6738 90.3143C39.6887 90.1669 39.6291 90.0489 39.5248 89.9457C39.4206 89.8425 39.2419 89.7393 38.9738 89.6214L39.0632 89.4002C39.4057 89.5624 39.8674 89.7688 40.4779 90.0195C41.1183 90.2848 41.6098 90.4765 41.9374 90.5797L41.848 90.8009C41.5651 90.6977 41.3566 90.6534 41.2226 90.6387C41.0736 90.6387 40.9545 90.6829 40.8651 90.8009C40.7609 90.9041 40.6567 91.0957 40.5375 91.3758L38.1994 96.9046C38.0803 97.1847 38.0207 97.3911 38.0058 97.5385C37.9909 97.686 38.0505 97.8039 38.1548 97.9071C38.259 98.0103 38.4377 98.1135 38.7058 98.2462L38.6164 98.4674C38.3037 98.3199 37.8569 98.1135 37.2612 97.8629C36.9634 97.745 36.6506 97.6123 36.2932 97.4648C35.9358 97.3174 35.6975 97.2289 35.5635 97.17C34.9827 96.9193 34.5211 96.6392 34.1785 96.3001C33.836 95.961 33.6424 95.6072 33.5531 95.2238C33.4637 94.8405 33.5084 94.4719 33.6722 94.1034C33.7913 93.8085 33.9849 93.5431 34.253 93.3072C34.5211 93.0713 34.8636 92.8944 35.2806 92.8059C35.6975 92.7175 36.2039 92.7322 36.7549 92.8649L36.6209 92.7912C36.3081 92.5995 36.0698 92.4079 35.9209 92.2015C35.772 92.0098 35.6678 91.7887 35.638 91.5528C35.5933 91.3169 35.6082 91.022 35.6678 90.6682L35.8762 89.415C35.9209 89.1643 35.9507 88.9727 35.9507 88.8252C35.9507 88.6778 35.9358 88.5599 35.8911 88.4714C35.8465 88.383 35.772 88.3092 35.6678 88.2797C35.5486 88.2208 35.4295 88.2208 35.3252 88.2503C35.221 88.2797 35.0721 88.3535 34.8785 88.4567L34.7593 88.265C35.0274 88.1028 35.2806 87.9849 35.5039 87.9407ZM36.2486 93.1893C35.8911 93.2335 35.6082 93.3662 35.3848 93.5873C35.1614 93.8085 34.9678 94.1034 34.804 94.4867C34.5508 95.0912 34.4913 95.6219 34.6551 96.0495C34.8189 96.477 35.221 96.8309 35.8911 97.111C36.1294 97.2142 36.3081 97.2584 36.457 97.2437C36.5911 97.2437 36.7102 97.1847 36.8145 97.0668C36.9187 96.9488 37.0229 96.7572 37.1272 96.4918L38.2888 93.7495L37.5293 93.4399C37.0378 93.2335 36.606 93.145 36.2486 93.1893Z" fill="#D9D9D9"/>
<path d="M23.8887 89.9455C24.0227 89.9897 24.1567 89.9602 24.2759 89.8865C24.395 89.8128 24.5588 89.6506 24.7524 89.4147L28.4904 84.6969C28.684 84.461 28.8031 84.2693 28.8478 84.1366C28.8924 84.0039 28.8776 83.8712 28.8031 83.7533C28.7286 83.6353 28.5797 83.4732 28.3563 83.2815L28.5053 83.0898C28.7882 83.3405 29.1754 83.6648 29.6966 84.0629C30.2476 84.4905 30.6646 84.8001 30.9476 84.9917L30.7987 85.1834C30.5604 85.0065 30.3668 84.9033 30.2328 84.8738C30.0987 84.8296 29.9647 84.8443 29.8456 84.9328C29.7264 85.0065 29.5626 85.1687 29.369 85.4045L25.631 90.1224C25.4374 90.3583 25.3183 90.55 25.2736 90.6827C25.229 90.8153 25.2438 90.948 25.3183 91.066C25.3928 91.1839 25.5417 91.3461 25.7651 91.5378L25.6162 91.7294C25.363 91.5083 24.9609 91.1839 24.4099 90.7416C23.8887 90.3436 23.4717 90.0339 23.1738 89.8275L23.3228 89.6359C23.5759 89.7981 23.7546 89.9013 23.8887 89.9455Z" fill="#D9D9D9"/>
<path d="M14.2687 79.4482C14.2091 78.7848 14.358 78.1213 14.7005 77.4874C15.058 76.8387 15.5941 76.2637 16.3387 75.7182C17.0684 75.2022 17.7981 74.8631 18.5576 74.7304C19.3171 74.5977 20.0171 74.6419 20.6723 74.8926C21.3276 75.1432 21.8786 75.5707 22.3105 76.1752C22.7721 76.7944 23.0253 77.4431 23.0849 78.1066C23.1444 78.77 22.9955 79.4335 22.653 80.0675C22.2956 80.7162 21.7595 81.2912 21.0149 81.8367C20.2851 82.3527 19.5554 82.6918 18.7959 82.8245C18.0513 82.9571 17.3365 82.9129 16.6812 82.6623C16.026 82.4116 15.4749 81.9841 15.0431 81.3944C14.5814 80.7604 14.3282 80.1117 14.2687 79.4482ZM16.5025 82.0726C17.0237 82.1758 17.6194 82.1315 18.2747 81.9251C18.9299 81.7187 19.5852 81.3796 20.2702 80.8783C20.9553 80.3918 21.4914 79.8611 21.8637 79.3008C22.2509 78.7406 22.4594 78.1803 22.4892 77.6496C22.5339 77.1188 22.3998 76.647 22.1169 76.2489C21.8041 75.8361 21.4021 75.5707 20.8659 75.4675C20.3447 75.3643 19.749 75.4086 19.0938 75.615C18.4385 75.8214 17.7832 76.1605 17.0982 76.647C16.4132 77.1335 15.877 77.6643 15.5047 78.2393C15.1175 78.7995 14.909 79.345 14.8644 79.8905C14.8197 80.4213 14.9537 80.8931 15.2367 81.2912C15.5494 81.704 15.9664 81.9693 16.5025 82.0726Z" fill="#D9D9D9"/>
<path d="M15.4145 61.6976C15.5933 61.8303 15.7273 62.0514 15.8166 62.3463C15.9209 62.6559 15.906 62.9508 15.7869 63.2014C15.6677 63.4668 15.3848 63.7174 14.9529 63.9681L13.8658 64.5725C13.4934 64.7937 13.2105 64.9706 13.0169 65.118C12.8233 65.2655 12.6893 65.4424 12.6148 65.6488C12.5403 65.8552 12.5403 66.0911 12.6297 66.386L12.9722 67.4917L15.6528 66.6661C15.9507 66.5776 16.1443 66.4892 16.2634 66.4007C16.3825 66.3122 16.4421 66.1943 16.457 66.0616C16.4719 65.9289 16.4272 65.7078 16.3528 65.4276L16.591 65.3539C16.6804 65.7078 16.8144 66.209 17.0229 66.8283C17.2314 67.4917 17.3952 67.9782 17.5144 68.2879L17.2761 68.3616C17.1718 68.0814 17.0825 67.8898 16.9931 67.7866C16.9038 67.6834 16.7846 67.6097 16.6357 67.6097C16.4868 67.6097 16.2634 67.6391 15.9805 67.7424L10.2023 69.5115C9.90442 69.6 9.71082 69.6885 9.59168 69.7769C9.47254 69.8654 9.41298 69.9833 9.39808 70.116C9.38319 70.2635 9.42787 70.4699 9.50233 70.75L9.26405 70.8237C9.18959 70.4994 9.05556 70.0276 8.86196 69.4083C8.77261 69.1135 8.65347 68.7744 8.53433 68.4205C8.4152 68.0667 8.32584 67.8161 8.28116 67.6834C8.08757 67.0789 8.028 66.5481 8.07267 66.0764C8.11735 65.6046 8.26627 65.2212 8.50455 64.9116C8.74282 64.602 9.05556 64.3956 9.44276 64.2777C9.7406 64.1892 10.0682 64.1597 10.4256 64.204C10.7831 64.2482 11.1256 64.3956 11.483 64.661C11.8404 64.9264 12.1383 65.3097 12.3914 65.8257L12.3765 65.6783C12.3319 65.3097 12.317 65.0148 12.3765 64.7642C12.4361 64.5136 12.5403 64.3072 12.6893 64.1302C12.8531 63.9533 13.0914 63.7617 13.4041 63.5847L14.5061 62.936C14.7295 62.8181 14.9082 62.7001 15.0125 62.6117C15.1167 62.5232 15.2061 62.4348 15.2507 62.3463C15.2954 62.2578 15.2954 62.1546 15.2656 62.0514C15.2209 61.9187 15.1614 61.8303 15.072 61.7713C14.9827 61.7123 14.8338 61.6386 14.6253 61.5649L14.6997 61.3438C14.9976 61.447 15.2507 61.5649 15.4145 61.6976ZM11.8553 65.6488C11.6021 65.4129 11.3043 65.2802 10.9916 65.2507C10.6788 65.2212 10.3214 65.2655 9.91931 65.3982C9.27894 65.5898 8.84707 65.8994 8.60879 66.2975C8.37052 66.6956 8.37052 67.2411 8.57901 67.9045C8.65347 68.1404 8.74282 68.3173 8.83218 68.4205C8.92153 68.5237 9.05556 68.5827 9.20448 68.5827C9.35341 68.5827 9.57679 68.5385 9.84485 68.4648L12.7042 67.5802L12.4659 66.7988C12.317 66.268 12.1085 65.8847 11.8553 65.6488Z" fill="#D9D9D9"/>
<path d="M14.2681 47.7062C14.834 47.4555 15.1765 46.9837 15.3254 46.2761C15.3701 46.0107 15.3701 45.7453 15.2956 45.4947C15.2212 45.244 15.0871 45.0229 14.8786 44.8312C14.6701 44.6395 14.3872 44.5069 14.0149 44.4479C13.7021 44.3889 13.4192 44.4184 13.1511 44.5216C12.8831 44.6248 12.615 44.787 12.3618 45.0081C12.1087 45.2293 11.8108 45.5241 11.4832 45.8927C11.1109 46.3055 10.7833 46.6446 10.5003 46.8805C10.2174 47.1312 9.90463 47.3081 9.5621 47.4408C9.21958 47.5735 8.83238 47.5882 8.40051 47.5145C7.95374 47.426 7.58144 47.2639 7.31338 46.9985C7.04532 46.7331 6.85172 46.4235 6.76236 46.0549C6.67301 45.6863 6.67301 45.303 6.74747 44.8902C6.79215 44.6395 6.85172 44.4479 6.92618 44.271C7.00064 44.094 7.0751 43.9614 7.16445 43.8581C7.25381 43.7549 7.34316 43.637 7.4623 43.5191C7.61122 43.3569 7.68568 43.2389 7.71547 43.1505C7.73036 43.0768 7.70057 43.0178 7.62611 42.9588C7.55165 42.8998 7.41762 42.8556 7.23892 42.7966L7.28359 42.5312C7.74525 42.6492 8.54943 42.8261 9.72592 43.0473L9.68124 43.3126C9.26426 43.2684 8.87706 43.2832 8.48986 43.3716C8.11756 43.4453 7.78993 43.6075 7.52187 43.8581C7.25381 44.094 7.0751 44.4331 7.00064 44.846C6.94107 45.1261 6.95596 45.3767 7.03042 45.6273C7.10488 45.878 7.23892 46.0696 7.41762 46.2318C7.61122 46.394 7.8346 46.4972 8.10266 46.5562C8.53454 46.6299 8.90685 46.5709 9.21958 46.3645C9.53232 46.1581 9.83016 45.8927 10.1131 45.5831C10.3961 45.2735 10.5748 45.0671 10.679 44.9639C11.096 44.5216 11.4385 44.1825 11.7215 43.9319C12.0044 43.6812 12.3172 43.5043 12.6597 43.3864C13.0022 43.2684 13.3745 43.2537 13.7766 43.3274C14.2681 43.4159 14.6701 43.6075 14.968 43.8876C15.2658 44.1825 15.4594 44.5216 15.5637 44.9344C15.6679 45.3472 15.6679 45.7895 15.5786 46.2613C15.5041 46.6446 15.4148 46.9395 15.2807 47.1754C15.1616 47.4113 14.9978 47.6177 14.8191 47.8094C14.6701 47.9715 14.5957 48.0895 14.5659 48.1779C14.551 48.2517 14.5808 48.3106 14.6553 48.3696C14.7297 48.4286 14.8637 48.4876 15.0424 48.5318L14.9978 48.7972C14.5659 48.6792 13.6128 48.4875 12.1385 48.2222L12.1831 47.9568C13.0171 48.0305 13.7021 47.9568 14.2681 47.7062Z" fill="#D9D9D9"/>
<path d="M11.3203 35.2773C10.9033 35.0561 10.4267 34.8497 9.89062 34.6433C10.2183 34.0683 10.7693 33.0658 11.5139 31.6357C12.2585 30.2203 12.7797 29.2178 13.0627 28.6133C13.5541 28.9229 14.0009 29.1883 14.403 29.3947C14.7604 29.5863 15.0731 29.719 15.3114 29.8222L15.1774 30.0729C14.5817 29.837 14.1349 29.6895 13.8222 29.6453C13.5094 29.5863 13.2265 29.6453 12.9882 29.7927C12.7499 29.9402 12.5117 30.235 12.2883 30.6773L11.9904 31.2671L18.1409 34.4369C18.4388 34.5991 18.677 34.6728 18.8409 34.6875C19.0047 34.7023 19.1536 34.658 19.2876 34.5401C19.4217 34.4221 19.5706 34.201 19.7493 33.8914L19.9727 34.0093C19.7493 34.3779 19.4663 34.8939 19.1089 35.5721C18.7366 36.2798 18.4686 36.8253 18.3047 37.1644L18.0814 37.0465C18.2303 36.7221 18.3345 36.4715 18.3494 36.3093C18.3792 36.1324 18.3345 35.9849 18.2154 35.8523C18.0962 35.7196 17.9026 35.5869 17.6048 35.4247L11.4543 32.2401L11.1416 32.8151C10.9033 33.2574 10.7991 33.6113 10.8139 33.8914C10.8288 34.1715 10.948 34.4221 11.1714 34.6433C11.3947 34.8644 11.767 35.1593 12.3032 35.4984L12.1691 35.749C11.9755 35.6311 11.6777 35.4689 11.3203 35.2773Z" fill="#D9D9D9"/>
<path d="M21.8336 18.3373C22.0868 18.0866 22.2953 17.8507 22.4442 17.6738L22.6229 17.8507C22.5336 17.9834 22.4889 18.1751 22.5038 18.3963C22.5187 18.6174 22.5783 18.927 22.6974 19.2956L24.0526 23.291L25.6312 24.8391C25.8545 25.0455 26.0184 25.1929 26.1524 25.2519C26.2864 25.3109 26.4204 25.3109 26.5545 25.2519C26.6885 25.1929 26.8523 25.0602 27.0757 24.8686L27.2544 25.0455C26.9715 25.2961 26.5992 25.65 26.1375 26.107C25.6461 26.5935 25.2886 26.9769 25.0653 27.2275L24.8865 27.0506C25.0801 26.8294 25.2142 26.6673 25.2737 26.5346C25.3333 26.4019 25.3333 26.2692 25.2589 26.1365C25.1993 26.0038 25.0504 25.8269 24.8419 25.6205L23.5314 24.3378L18.5573 22.893C18.2595 22.8045 18.0361 22.775 17.8872 22.7898C17.7383 22.8045 17.634 22.8487 17.5596 22.9225L17.3809 22.7455C17.6191 22.5391 17.8872 22.3032 18.1553 22.0231C18.7063 21.4629 19.1084 21.0648 19.3317 20.7994L19.5105 20.9763C19.1084 21.3744 19.019 21.684 19.2424 21.9052C19.3317 21.9936 19.4509 22.0526 19.6296 22.1116L23.8143 23.3942L22.7123 20.136C22.5485 19.6642 22.3847 19.3398 22.2059 19.1776C22.0421 19.0155 21.8634 18.9712 21.6698 19.0302C21.4762 19.0892 21.2528 19.2366 20.9848 19.4873L20.8061 19.3103C21.1635 18.986 21.4911 18.6616 21.8336 18.3373Z" fill="#D9D9D9"/>
<path d="M30.8427 12.3954C30.7534 12.4986 30.7087 12.6313 30.7385 12.7787C30.7683 12.9262 30.8427 13.1326 30.9916 13.3979L33.8658 18.6761C34.0148 18.9414 34.1339 19.1183 34.253 19.2216C34.3573 19.3248 34.4913 19.3542 34.6254 19.3395C34.7594 19.3248 34.9679 19.2363 35.221 19.1036L36.0103 18.6761C36.4571 18.4402 36.7698 18.1895 36.9337 17.9389C37.0975 17.6882 37.157 17.4081 37.1124 17.069C37.0677 16.7299 36.9337 16.3024 36.6954 15.7421L36.9485 15.6094C37.0528 15.8453 37.2017 16.1402 37.3953 16.494C37.6187 16.8921 37.8868 17.3344 38.2144 17.8209C37.7229 18.0568 36.889 18.4844 35.7423 19.1036C34.3722 19.8408 33.3297 20.401 32.6447 20.7991L32.5255 20.5927C32.7787 20.4452 32.9574 20.3126 33.0468 20.2094C33.1361 20.1062 33.1808 19.9735 33.151 19.826C33.1212 19.6786 33.0468 19.4722 32.8979 19.2068L29.9939 13.9287C29.8449 13.6633 29.7258 13.4864 29.6067 13.3832C29.5024 13.28 29.3684 13.2505 29.2344 13.2653C29.0854 13.28 28.8918 13.3537 28.6238 13.4864L28.5195 13.2653C28.8323 13.1326 29.2939 12.8967 29.9045 12.5576C30.4853 12.248 30.9321 11.9973 31.2448 11.8057L31.3639 12.0121C31.1108 12.1595 30.947 12.2922 30.8427 12.3954Z" fill="#D9D9D9"/>
<path d="M48.983 13.3389C49.0723 13.7812 49.2064 14.2824 49.3702 14.8427C48.8192 14.9311 47.9107 15.0933 46.63 15.3439C45.0961 15.6388 43.9494 15.8747 43.1601 16.0516L43.1154 15.8157C43.3984 15.742 43.6069 15.683 43.726 15.5946C43.8452 15.5209 43.9196 15.4029 43.9345 15.2702C43.9494 15.1228 43.9345 14.9016 43.8749 14.6068L42.7134 8.72419C42.6538 8.42933 42.5942 8.22292 42.5049 8.09023C42.4155 7.95754 42.3262 7.88382 42.1772 7.86908C42.0432 7.83959 41.8198 7.85434 41.5369 7.89857L41.4922 7.66267C42.2815 7.52998 43.4431 7.32358 44.9621 7.02871C46.1386 6.79282 46.9725 6.63064 47.4491 6.5127C47.4938 7.04345 47.5682 7.51524 47.6427 7.92805C47.7023 8.23766 47.7618 8.47356 47.8214 8.65048L47.5533 8.70945C47.3895 8.20818 47.2406 7.83959 47.1066 7.6037C46.9725 7.36781 46.7789 7.22037 46.5555 7.14666C46.3173 7.07294 46.0045 7.07294 45.5727 7.1614L44.5749 7.35306C44.2919 7.41204 44.0834 7.47101 43.9643 7.54473C43.8452 7.61844 43.7707 7.72165 43.7409 7.86908C43.726 8.01651 43.7409 8.23766 43.8005 8.53253L44.3515 11.3338L45.1408 11.1716C45.5429 11.0979 45.7812 10.9209 45.8705 10.6556C45.9599 10.3902 45.9896 10.1396 45.9748 9.88892C45.9599 9.63828 45.945 9.4761 45.945 9.40239L46.213 9.34341C46.2577 9.74148 46.3173 10.1101 46.3917 10.4639L46.5109 11.0242C46.5853 11.4222 46.7194 11.9825 46.913 12.6901L46.6449 12.7491C46.63 12.6901 46.5704 12.5132 46.4662 12.1889C46.3619 11.8645 46.213 11.6434 45.9896 11.5107C45.7663 11.378 45.5131 11.3485 45.1855 11.4075L44.3962 11.5549L44.9621 14.4004C45.0216 14.6952 45.0812 14.9016 45.1557 15.0343C45.2301 15.1523 45.3344 15.226 45.4833 15.2555C45.6173 15.2702 45.8407 15.2555 46.1237 15.1965L47.0023 15.0196C47.4938 14.9164 47.8661 14.7837 48.1043 14.6068C48.3426 14.4299 48.4767 14.1792 48.5362 13.8696C48.5958 13.56 48.5958 13.1177 48.5511 12.5427L48.8192 12.4837C48.8638 12.7049 48.9085 12.985 48.983 13.3389Z" fill="#D9D9D9"/>
<path d="M38.9453 69.6442C38.2603 68.7301 37.6646 67.7276 37.1434 66.6218C36.6222 65.5161 36.2052 64.3956 35.8924 63.2456C35.2074 58.1887 35.1925 53.2791 35.8329 48.517C36.4732 43.7549 37.5157 39.0666 38.9453 34.4372C39.1836 33.9212 39.7049 33.6705 40.509 33.6705C41.3132 33.6705 42.1025 33.8474 42.9067 34.2013C43.7109 34.5551 44.3661 35.0269 44.8874 35.6166C45.4086 36.2064 45.5277 36.8256 45.2448 37.4595C44.798 38.4031 44.3661 39.6858 43.9342 41.2781C43.5024 42.8851 43.0705 44.6543 42.6833 46.5857C42.2812 48.517 41.9387 50.5516 41.6408 52.6599C41.343 54.7682 41.1196 56.8028 40.9856 58.7342C40.8516 60.6655 40.8218 62.42 40.8962 63.9828C40.9707 65.5456 41.209 66.784 41.6111 67.6833C43.4875 65.1917 45.2001 62.6116 46.7638 59.9431C48.3275 57.2746 49.7869 54.5765 51.157 51.8195C52.5271 49.0773 53.8376 46.3055 55.0736 43.4896C56.3097 40.6883 57.5309 37.9166 58.7222 35.1891C59.3179 33.8032 59.9136 32.3436 60.4944 30.8103C61.0752 29.2623 61.8347 27.9501 62.8027 26.8444C63.2048 26.4905 63.5175 26.3726 63.726 26.4905C63.9494 26.6085 64.0983 26.8296 64.1728 27.1687C64.2473 27.5078 64.2919 27.8616 64.2919 28.2302C64.2919 28.5988 64.2919 28.8937 64.2919 29.0853C64.009 30.8988 63.7707 32.6975 63.5771 34.4814C63.3835 36.2653 62.9516 37.9756 62.3262 39.6416C61.2837 42.2511 60.2264 44.8312 59.1243 47.4113C58.0223 49.9766 56.8458 52.5125 55.5949 55.0041C54.3439 57.4957 52.9738 59.9136 51.5293 62.2578C50.0699 64.6167 48.4913 66.8577 46.7638 68.9808C45.4086 70.6762 44.0534 71.5756 42.728 71.6788C41.343 71.7967 40.1069 71.1038 38.9453 69.6442Z" fill="#D9D9D9" stroke="white" stroke-miterlimit="10"/>
<path d="M63.6081 62.9511C62.8039 61.8453 62.0146 60.7248 61.2402 59.5749C60.4658 58.4249 60.0786 57.1717 60.0786 55.7858C60.0786 54.2525 60.5254 52.7929 61.4189 51.4218C62.3125 50.0654 63.34 48.9597 64.5016 48.134C64.9782 47.8244 65.4696 47.5591 65.961 47.3674C66.4525 47.1757 66.9886 47.1905 67.5545 47.4264C67.7928 47.5443 68.046 47.6328 68.2991 47.6917C68.5523 47.7507 68.7906 47.8244 68.9842 47.8982C69.1778 47.9719 69.4012 48.0898 69.6394 48.252C69.8777 48.4142 69.9969 48.6206 69.9969 48.9007C69.9969 50.0064 70.0266 50.9058 70.0862 51.5987C70.1458 52.2917 70.2351 52.8814 70.3543 53.3827C70.4734 53.8839 70.5925 54.3115 70.7117 54.6801C70.8308 55.0634 70.95 55.4615 71.0691 55.889C71.1435 56.2871 71.1287 56.6262 71.0095 56.8916C70.8904 57.1717 70.5925 57.2012 70.116 57.0095C69.2373 56.6999 68.5821 56.066 68.1651 55.1076C67.7481 54.1493 67.4354 53.2942 67.2418 52.4981C67.1971 52.3359 67.1078 52.0705 66.9439 51.6724C66.7801 51.2744 66.6908 50.9942 66.6461 50.8468C66.3334 50.7731 65.9462 50.8763 65.5143 51.1712C65.0824 51.466 64.6803 51.8788 64.3527 52.3801C64.0102 52.8961 63.7868 53.4859 63.6974 54.1641C63.5932 54.8423 63.7272 55.5057 64.0846 56.1839C64.2484 56.4198 64.4718 56.7147 64.7697 57.039C65.0675 57.3781 65.3654 57.7172 65.6632 58.071C65.9611 58.4249 66.2589 58.7787 66.5567 59.1031C66.8546 59.4274 67.1078 59.7076 67.3014 59.8992C67.5396 60.1351 67.7034 60.2678 67.7779 60.2825C67.8524 60.2973 68.0609 60.2531 68.3736 60.1351C68.7757 59.9434 69.3863 59.6781 70.2053 59.3685C71.0244 59.0588 71.8882 58.7345 72.7817 58.4249C73.6752 58.1153 74.539 57.8499 75.3581 57.6287C76.1771 57.4076 76.8026 57.3044 77.2494 57.3044C77.5323 57.3044 77.7259 57.4076 77.8451 57.5993C77.9642 57.7172 77.9493 57.8794 77.7855 58.071C77.6217 58.2627 77.4132 58.4691 77.16 58.6608C76.9068 58.8524 76.6239 59.0294 76.3558 59.1915C76.0729 59.3537 75.8942 59.4422 75.8197 59.4864C75.1347 59.8845 74.2858 60.3268 73.2434 60.828C72.2009 61.3146 71.3074 61.8011 70.5479 62.2729C70.4734 62.3466 70.3245 62.4351 70.1011 62.5088C69.8777 62.5825 69.7139 62.671 69.5948 62.7447C70.0713 63.8062 70.4138 64.735 70.6074 65.5017C70.801 66.2683 70.8755 67.0055 70.8159 67.7279C70.7564 68.4356 70.6074 69.158 70.3692 69.8952C70.1309 70.6323 69.8032 71.4727 69.416 72.4163C68.8501 73.3304 68.2842 74.2002 67.7034 75.0259C67.1226 75.8515 66.4823 76.6034 65.7526 77.2816C65.0377 77.9598 64.2484 78.4905 63.4145 78.8739C62.5805 79.2719 61.6572 79.4636 60.6594 79.4636C60.0935 79.4636 59.5574 79.3899 59.0362 79.2572C58.5149 79.1245 58.0831 78.8296 57.7256 78.4021C56.8023 77.4143 56.296 76.338 56.1768 75.1733C56.0577 74.0086 56.162 72.8586 56.4747 71.7086C56.713 71.0009 57.0108 70.3522 57.3682 69.7477C58.2469 68.2439 59.2149 66.976 60.2722 65.9292C61.3445 64.8972 62.4465 63.8947 63.6081 62.9511ZM65.6483 65.6196C65.2015 66.0619 64.6059 66.6811 63.8464 67.492C63.0868 68.3029 62.3869 69.1875 61.7168 70.1311C61.0615 71.0746 60.5254 72.0182 60.1084 72.947C59.6914 73.8759 59.5872 74.672 59.7808 75.3502C60.585 74.9964 61.404 74.4066 62.238 73.5958C63.072 72.7849 63.8166 71.9003 64.4569 70.9272C65.0973 69.9542 65.5441 68.9958 65.7972 68.0523C66.0504 67.094 66.0057 66.2831 65.6483 65.6196Z" fill="#D9D9D9" stroke="white" stroke-miterlimit="10"/>
<path d="M53.8979 86.953C35.2677 86.953 20.1074 71.9443 20.1074 53.5004C20.1074 35.0566 35.2677 20.0479 53.8979 20.0479C72.5281 20.0479 87.6884 35.0566 87.6884 53.5004C87.6884 71.9443 72.5281 86.953 53.8979 86.953ZM53.8979 21.5222C36.0868 21.5222 21.5966 35.8674 21.5966 53.5004C21.5966 71.1334 36.0868 85.4787 53.8979 85.4787C71.709 85.4787 86.1992 71.1334 86.1992 53.5004C86.1992 35.8674 71.709 21.5222 53.8979 21.5222Z" fill="#D9D9D9"/>
</g>
</svg>
